<mxfile type="github" version="13.0.1" host="app.diagrams.net" modified="2020-04-23T14:07:59.782Z" agent="5.0 (Windows NT 10.0; Win64; x64) AppleWebKit/537.36 (KHTML, like Gecko) Chrome/70.0.3538.102 Safari/537.36 Edge/18.18363" etag="1rZE2SIhDw36mTLXz29i" pages="2">
  <diagram id="uOgTINElpu-IiV_9DuY3" name="第 1 页">
    <mxGraphModel grid="1" dx="1422" dy="832" gridSize="10" guides="1" tooltips="1" connect="1" arrows="1" fold="1" page="1" pageScale="1" pageWidth="827" pageHeight="1169" math="0" shadow="0">
      <root>
        <mxCell id="0" />
        <mxCell id="1" parent="0" />
        <mxCell id="gIP6S9F6-g7-Ln39XYHl-1" value="Boot Loader" parent="1" vertex="1" style="rounded=1;whiteSpace=wrap;html=1;">
          <mxGeometry as="geometry" height="60" width="560" y="510" x="260" />
        </mxCell>
        <mxCell id="gIP6S9F6-g7-Ln39XYHl-2" value="&lt;div&gt;Zyphyr&lt;/div&gt;&lt;div&gt;Kernel&lt;br&gt;&lt;/div&gt;" parent="1" vertex="1" style="rounded=1;whiteSpace=wrap;html=1;">
          <mxGeometry as="geometry" height="310" width="60" y="190" x="760" />
        </mxCell>
        <mxCell id="gIP6S9F6-g7-Ln39XYHl-3" value="Modem Driver" parent="1" vertex="1" style="rounded=1;whiteSpace=wrap;html=1;">
          <mxGeometry as="geometry" height="40" width="90" y="460" x="280" />
        </mxCell>
        <mxCell id="gIP6S9F6-g7-Ln39XYHl-4" value="GPS Driver" parent="1" vertex="1" style="rounded=1;whiteSpace=wrap;html=1;">
          <mxGeometry as="geometry" height="40" width="86" y="460" x="376" />
        </mxCell>
        <mxCell id="gIP6S9F6-g7-Ln39XYHl-6" parent="1" style="edgeStyle=orthogonalEdgeStyle;rounded=0;orthogonalLoop=1;jettySize=auto;html=1;exitX=0.5;exitY=1;exitDx=0;exitDy=0;" edge="1">
          <mxGeometry as="geometry" relative="1">
            <mxPoint as="sourcePoint" y="500" x="513" />
            <mxPoint as="targetPoint" y="500" x="513" />
          </mxGeometry>
        </mxCell>
        <mxCell id="gIP6S9F6-g7-Ln39XYHl-7" value="Motion Driver" parent="1" vertex="1" style="rounded=1;whiteSpace=wrap;html=1;">
          <mxGeometry as="geometry" height="40" width="86" y="460" x="470" />
        </mxCell>
        <mxCell id="gIP6S9F6-g7-Ln39XYHl-8" value="Button Driver" parent="1" vertex="1" style="rounded=1;whiteSpace=wrap;html=1;">
          <mxGeometry as="geometry" height="40" width="86" y="460" x="564" />
        </mxCell>
        <mxCell id="gIP6S9F6-g7-Ln39XYHl-9" value="TCP/IP Stack" parent="1" vertex="1" style="rounded=1;whiteSpace=wrap;html=1;">
          <mxGeometry as="geometry" height="54" width="90" y="357" x="280" />
        </mxCell>
        <mxCell id="gIP6S9F6-g7-Ln39XYHl-10" value="AT CMD Interface" parent="1" vertex="1" style="rounded=1;whiteSpace=wrap;html=1;">
          <mxGeometry as="geometry" height="35" width="90" y="418" x="280" />
        </mxCell>
        <mxCell id="gIP6S9F6-g7-Ln39XYHl-11" value="HAL" parent="1" vertex="1" style="rounded=1;whiteSpace=wrap;html=1;">
          <mxGeometry as="geometry" height="35" width="370" y="420" x="380" />
        </mxCell>
        <mxCell id="gIP6S9F6-g7-Ln39XYHl-12" value="Cloud Driver" parent="1" vertex="1" style="rounded=1;whiteSpace=wrap;html=1;">
          <mxGeometry as="geometry" height="46" width="90" y="300" x="280" />
        </mxCell>
        <mxCell id="gIP6S9F6-g7-Ln39XYHl-13" value="&lt;div&gt;Cloud connection&lt;br&gt;&lt;/div&gt;&lt;div&gt;management&lt;/div&gt;" parent="1" vertex="1" style="rounded=1;whiteSpace=wrap;html=1;fillColor=#66B2FF;">
          <mxGeometry as="geometry" height="46" width="90" y="240" x="280" />
        </mxCell>
        <mxCell id="gIP6S9F6-g7-Ln39XYHl-14" value="Motion Detection Alg" parent="1" vertex="1" style="rounded=1;whiteSpace=wrap;html=1;fillColor=#66B2FF;">
          <mxGeometry as="geometry" height="107" width="86" y="303" x="384" />
        </mxCell>
        <mxCell id="gIP6S9F6-g7-Ln39XYHl-15" value="GPS Data Handling" parent="1" vertex="1" style="rounded=1;whiteSpace=wrap;html=1;fillColor=#66B2FF;">
          <mxGeometry as="geometry" height="107" width="86" y="304" x="478" />
        </mxCell>
        <mxCell id="gIP6S9F6-g7-Ln39XYHl-16" value="Sensor Data Handling" parent="1" vertex="1" style="rounded=1;whiteSpace=wrap;html=1;fillColor=#66B2FF;">
          <mxGeometry as="geometry" height="107" width="86" y="304" x="573.5" />
        </mxCell>
        <mxCell id="gIP6S9F6-g7-Ln39XYHl-17" value="Cloud Message Coding/Decoding" parent="1" vertex="1" style="rounded=1;whiteSpace=wrap;html=1;fillColor=#66B2FF;">
          <mxGeometry as="geometry" height="35" width="370" y="245.5" x="380" />
        </mxCell>
        <mxCell id="gIP6S9F6-g7-Ln39XYHl-18" value="Cloud Event/Command Handling" parent="1" vertex="1" style="rounded=1;whiteSpace=wrap;html=1;fillColor=#66B2FF;">
          <mxGeometry as="geometry" height="35" width="470" y="190" x="280" />
        </mxCell>
        <mxCell id="gIP6S9F6-g7-Ln39XYHl-19" value="" parent="1" vertex="1" style="rounded=1;whiteSpace=wrap;html=1;">
          <mxGeometry as="geometry" height="490" width="180" y="80" x="30" />
        </mxCell>
        <mxCell id="gIP6S9F6-g7-Ln39XYHl-20" value="Cloud Driver" parent="1" vertex="1" style="rounded=1;whiteSpace=wrap;html=1;">
          <mxGeometry as="geometry" height="46" width="90" y="312" x="75" />
        </mxCell>
        <mxCell id="gIP6S9F6-g7-Ln39XYHl-21" value="&lt;div&gt;Cloud connection&lt;br&gt;&lt;/div&gt;&lt;div&gt;management&lt;/div&gt;" parent="1" vertex="1" style="rounded=1;whiteSpace=wrap;html=1;">
          <mxGeometry as="geometry" height="46" width="90" y="240" x="75" />
        </mxCell>
        <mxCell id="gIP6S9F6-g7-Ln39XYHl-23" value="Cloud command and device report handling" parent="1" vertex="1" style="rounded=1;whiteSpace=wrap;html=1;">
          <mxGeometry as="geometry" height="46" width="130" y="184.5" x="60" />
        </mxCell>
        <mxCell id="gIP6S9F6-g7-Ln39XYHl-24" value="Data Handling" parent="1" vertex="1" style="rounded=1;whiteSpace=wrap;html=1;">
          <mxGeometry as="geometry" height="46" width="130" y="124" x="60" />
        </mxCell>
        <mxCell id="gIP6S9F6-g7-Ln39XYHl-25" value="" parent="1" style="endArrow=none;dashed=1;html=1;exitX=1;exitY=0.5;exitDx=0;exitDy=0;entryX=0;entryY=0.5;entryDx=0;entryDy=0;" edge="1" target="gIP6S9F6-g7-Ln39XYHl-18" source="gIP6S9F6-g7-Ln39XYHl-23">
          <mxGeometry as="geometry" height="50" width="50" relative="1">
            <mxPoint as="sourcePoint" y="220" x="250" />
            <mxPoint as="targetPoint" y="170" x="300" />
          </mxGeometry>
        </mxCell>
        <mxCell id="gIP6S9F6-g7-Ln39XYHl-26" value="" parent="1" style="endArrow=none;dashed=1;html=1;exitX=1;exitY=0.5;exitDx=0;exitDy=0;entryX=0;entryY=0.5;entryDx=0;entryDy=0;" edge="1" target="gIP6S9F6-g7-Ln39XYHl-13" source="gIP6S9F6-g7-Ln39XYHl-21">
          <mxGeometry as="geometry" height="50" width="50" relative="1">
            <mxPoint as="sourcePoint" y="262.5" x="180" />
            <mxPoint as="targetPoint" y="262.5" x="320" />
          </mxGeometry>
        </mxCell>
        <mxCell id="gIP6S9F6-g7-Ln39XYHl-27" value="Configuration Handling" parent="1" vertex="1" style="rounded=1;whiteSpace=wrap;html=1;fillColor=#66B2FF;">
          <mxGeometry as="geometry" height="107" width="86" y="304" x="670" />
        </mxCell>
        <mxCell id="gIP6S9F6-g7-Ln39XYHl-28" value="Battery Driver" parent="1" vertex="1" style="rounded=1;whiteSpace=wrap;html=1;">
          <mxGeometry as="geometry" height="40" width="86" y="460" x="659.5" />
        </mxCell>
        <mxCell id="gIP6S9F6-g7-Ln39XYHl-29" value="" parent="1" vertex="1" style="shape=image;verticalLabelPosition=bottom;labelBackgroundColor=#ffffff;verticalAlign=top;aspect=fixed;imageAspect=0;image=data:image/png,iVBORw0KGgoAAAANSUhEUgAAAaoAAAD5CAYAAAB24nEbAAAgAElEQVR4nOydeXxNV/f/r1KKhgQtIkEi8yCDJAehIpKYquZ5rqGKtqql1FNVpYaaSwfqeVBFS0w1S2IeWlVFhCBijoxkvLnTef/+uL+ze2+mon3a9Pucz+u1X+Kec/aw9t5r7bX22ntpjEYjalKTmtSkJjWV16T5uyugJjWpSU1qUlNZSRVUalKTmtSkpnKdVEGlJjWpSU1qKtdJFVRqUpOa1KSmcp1UQaUmNalJTWoq10kVVGpSk5rUpKZynVRBpSY1qUlNairXSRVUalKTmtSkpnKdVEGlJjWpSU1qKtdJFVRqUpOa1KSmcp1UQaUmNalJTWoq10kVVGpSk5rUpKZynTSoUKFChQoV5RiqoFKhQoUKFeUaqqBSoUKFChXlGqqgUqFChQoV5RpPLKhkWRb/6vV6CgsLMZlMxZ4VFhai0+mKPfu9vJX3jEYjOp2u2O+l1Ud537IOKlSoUFHeYMmjdDqd4Ftl8bknzdtoNKLX60Weer0eg8Fg9c4fRVFZ8Gfnb4k/TaNSBYQKFSpUPD4seWVpf5cXWPJ3o9H4l/P7JxZUioaUlpbG6NGjkSSJM2fOAAgJ/uDBAyRJonfv3ly5cgUAg8FgtWoo2lBZljGZTJhMJmRZJjo6mgEDBhT7vWiH6vV6AA4cOMCAAQN48OCBqGfR8izLKo+DQYUKFf+3UZQXRUZG0rt3b8GvSuNbpfGwoknRajZv3syQIUPQarUUFhYyfvx4vvjiCwArTetx81WeWUKpq8Fg4L333mPOnDlAybz+ccooS/g9saAyGo0A3Lx5k+bNm6PRaJg5c6ZVAd9++y0ajYYGDRpw5swZKwIW7bTSKrZ06VIaNWpkVWZJUL5du3YtjRo14ubNm2V+owooFSpU/J1QGPzx48fRaDTUrl2bH374wWrhXRIeh3cp3y9cuBA3Nzfy8/MpKCigdevWTJo0CYDCwsInzl/h3wkJCURFRXHy5EmrMl9++WWGDx8OILZsnrT+ZWmVT61R3b59mzZt2hAcHEy/fv24du0asiyTm5tL//796dixI05OTpw7d058l5mZya1bt0hNTS1RSKWnp3Pz5k2ysrJYtWoVvr6+YpWRl5dHdna2KB8gPz+fjIwMADZu3Iivry+3b9+2yvvBgwfcvn2bR48eWRFB1apUqFDxV0PhZwCDBw+mc+fODBkyhF69egFmJl9QUEBubi6FhYXcv3+fO3fuCOGi8CzlHa1Wy71797h7966VprRixQqaNWtGdnY2siyTkZFBTk6OVV1ycnK4c+cO9+/fF8JFp9Nx//59bt26xe3btwWvVpSNffv20bhxY9auXWvFyx8+fGjFYwEePXrE7du3SUlJsVIcdDodOTk56HQ60tLSuH37tqhbaTz5qQXVvXv38PHxYebMmXTo0IH169cDcPbsWby9vfnmm2+oVasW586dQ5ZlPvvsM5o2bUqTJk1wc3Nj8uTJ5Ofno9PpMBgMLF26FFdXVxo3bkznzp3p06cPgYGBQpLPmDGD0NBQHj58KOry/vvv06xZMwC++eYbvLy8uHXrluiY8ePH4+npiZubG0FBQRw4cMDKlKhChQoVfxUseU92djZ2dnYcPHiQ7du3Y29vz40bN5BlmYULF+Lu7s6gQYNo3bo1DRo04OWXX+bGjRuCb82YMQMvLy+GDBlC8+bNadCgAX369OH27duA2SIVGBhIQUEBBQUFtG3blilTpgBmHr5lyxZat25NkyZNCAoKYtasWeTl5ZGYmEhUVBSOjo44OTnh4+PD+++/T2FhIbdv3yYyMpLKlSvj4OCAk5MT//rXv9DpdHTv3p0RI0aI/L/77juaNWsm+P3IkSPJyspClmX279+Pu7s7gwcP5pVXXsHJyYnAwEAOHz4MYLUHpuCpBdX9+/dxdXXl22+/5ZNPPmHgwIEYDAamTp3KsGHD+PHHH6latSq3bt1i//792Nra8t133wHw888/06BBA6ZNmwbAli1bqFu3Llu2bAHg9OnTVK9endDQUOERM2vWLMLDw62k9ocffkhoaCgA69evx9vbmzt37gDQt29f6taty6+//gqYVWEnJycSExNFO1SNSoUKFX8lFK1n2bJlvPjiixQWFpKcnEzjxo1ZsGABsiyzfPlyNBoN48aNAyA3N5d27drRoUMHtFotAHPnzkWj0fD+++8DkJqaSrNmzejbt6/IPyAggPz8fLRaLZGRkbz33nsA7Nq1C1tbWxYsWCDy//bbb7l27Vqx+ubm5uLn58fq1asBuHTpEv7+/pw6dUq8YzAY6NmzpxBUR44coV69eixatAiA5ORkPDw8GDJkiHhevXp1+vTpIxSP0aNH4+npKbwViyoSTy2oUlJS8PT0ZNmyZSQnJ+Pm5saVK1fw8/Pj5MmTxMTEUK1aNdLT0xk4cCCvvPKK6CiAjz/+GDc3N2RZpl+/fnTv3t3q+TvvvIOfn59QGWfNmkXbtm1Fw2RZZvr06bRs2RL4TVDdv3+fhw8fUqVKFWJjY63q3qpVKz7//HPxvapVqVCh4q9AUWeH0NBQ4XwAMHPmTNq0aSPMdrVq1SIjI0MsqI8ePYqjo6MQEDNnzqR+/fpWbuHbtm2jYcOGpKSk8O9//xs/Pz8KCgrQarVERESIParevXsTFRUFmLWXonzwzp07rFq1io8++ojZs2cTGhoqBODx48fx8fFh9+7d6PV6kXr27Cn2qN566y1CQkKEtQzM/LlOnTrodDoOHz5MgwYN+PHHHwGzoDt16hR169YlIyNDeBZa4g9pVN7e3oLYwcHB9O7dG3d3dwD27t1LjRo1uHnzJl26dGHcuHHCG0Sv17NmzRrhLNGlSxfGjh0rnhsMBhYtWoSvr68o7+OPPyY8PJysrCxRj+nTp9OiRQtBCEVQJSQkULlyZTp27MiQIUMYNGgQQ4cOpWLFiowcOVLkqQoqFSpU/FVQTFrnzp2jSpUqSJLE8OHDGT58OCEhITzzzDMkJiaydu1awctMJhNGo5FTp07h7e3Nzp07AbPpLyQkROzbG41G9u3bh5ubG+fPn2fdunU0bdpUCKp27doJ019YWBivvfaa4LdGo5H8/HyMRiNXrlyhY8eOdOjQgdGjRzNixAh8fHzo2LEjYLZ2+fr6sm/fPsDMQxWNauTIkQAMGTKE7t27i/YaDAYOHTpErVq1SE9P58iRI/j4+HD8+HEhiE+fPs0LL7zAnTt3SlQi/pBG5ePjwyeffILJZGLBggVoNBreeOMNTCYTe/fupXr16mRkZDBo0CC6dOkC/OY9MnPmTKFR9e/fn27dulk9f/vtt/H39xeNnTdvHm3btiU7O1toXRMnTixm+lM0qmrVqvH2228zf/58Zs+ezbx58/j++++5ePHiX34GQIUKFf/bkGVZOCyMHz+e4OBgFi1axLx585g3bx5LliwRC/9NmzZRs2ZN0tPTBb89cuQIDg4OVhpVvXr10Ol0QvuIjo7G0dHxdzWqPn36EBERARTXqD766CN8fHysHC8GDBggNLBTp07RtGlT9u3bV6pGNWHCBEJCQigsLBT8fN26dUKjio2Nxdvb28pzUBFU9+7d++8Iqvnz5wPmc1XHjx/n/v37YsPMxsaGW7ducfDgQWxtbdmwYQMAZ86cwdHRkQ8++AAwq6x169Zl06ZNABw/fpxq1arRqlUrq3NSderU4cCBAwCcOHGCGjVq0LlzZ6D4HtXw4cMZMGCAVd1XrVolznWpXn8qVKj4q6AIhOzsbFxcXFi2bFmxd2bPnk2rVq2YPXs2FSpUYPTo0RiNRh4+fEhYWBidO3cWe1Rz5sxBo9EwefJkwGzh8vf3F2dPlT0qRVBZ7lHt2bOHWrVqiT2qR48esXr1ajIyMvjss89wdHQUx3y+/vprNBoNnTp1AuDy5cu4urryn//8R9S76B7V8ePHqV+/Pp9++ikA169fx8PDg1dffRUw83JfX1+rfa4ff/xRCCoobu166nNU9+/fx93dnblz51r9rmDv3r3Y2NgIr78vv/wSPz8/GjdujJubG9OmTROH0YxGIytWrKBJkyY0bNiQl19+mb59+9K0aVNhKtTr9Xz00Ue4urri4eHB0KFD6dSpE61atQLMEtvNzY2bN28iyzKZmZlMmjSJpk2b0rhxY4KDg5k0aZJwp1SdKVSoUPFXQVlwr1+/nho1ahAfHy+uoMvPz0ev13P8+HEaNWpEREQE4eHhDB48mBYtWtCgQQO6du1KcnKy4FmzZs0iICCA4cOHExQUhL29Pf379xdef4sXL6Zp06biHFVRr7/t27fTqlUrGjduTFBQEPPmzUOv15ORkcHo0aOxt7fH3d2dl19+mYiICNq3bw+YhdLChQtxdnamUaNGTJs2rZjXnyybL2wIDg7GyckJNzc3xowZI1zlY2Ji8PDw4MSJE4I+p06dwtbWlrt37wLF5clT3/VnMpmEr7/yf0s10mAwkJOTY1VgdnY2KSkpYp/JMj8wS/aUlBTxXW5ubrF3srKyePDgAXl5eRgMBvLy8sRAyM3NLSaAMjIyePDgARkZGVZ1UYWUChUq/iooFhytVktOTk6JNzLodDpyc3NZtGgRoaGhPHjwgPT0dB48eCAEnWI+VLygc3JySEtLIzU1VfA3xcyYl5cn8s/Pzy920DcvL0/wRssLGYxGoyhXEaL5+flWbcnKyiIlJYVHjx4hy7LQ3CyRm5tLSkqKcApRYDAYyM3NteLHRqORnJycUu+G/UtuTy9NKDzOXtHT7if9XplPk6cKFSpU/LdgeauEh4eHuMxAgeU+17Rp0wgICCgmfB6Hp5XFG5/k9oinyf9p8YduTy/pfqaynpd1r1NJz5/0nd8rr6Q8VahQoeK/jd/jU/DbHXnR0dGMHj1aaCuW9/8pms/atWsZP348hYWFxd4pWk7RMkt7XtZ3v/ft475TEg1Ko4sl1HhUKlSoUKGiXEMVVCpUqFBRDqBoEWXF1rPUvpRbLoq+838R5UZQWRJcsdX+XyS+ZZuU60Isrwx5EhuwYgqw3ET9M+up5GcymYqFBvhfgCVTsDy8+N+gt4r/PoqOZ71eX2pfljbHLOdCSd/9U/BP47flRlD9r6E8D4r/JZS0V/A4e5l/JqN6knJVPB1Uuv6zUW4ElTKA8vPzadu2LVB2HKq/G0/itGGZLN3nV6xYgZeXF82aNePw4cNWm6VllWEZsOytt95ixowZAFYro6fZxLR8zzJY5c6dO+nYsaPV709Ci6d99mdu4D5NHkpfvPHGG6xbt47CwkImTpwoIgUUXYk+bVstvy3rnZL6sKw2PQ2dnrbfnrR+f+TZ09JY4Sfbtm2jefPmuLi48M0331j1tfK+okErN+usWrUKMAck7N69O+np6ciybGUJKauu5Q1Knf4p/LbcCCqlw3Nzc7G1tQWwYtr/13Dx4kVq167NqVOnSE9PF+fBSmN6JUGv19OpUyeGDh0KYGXXLorHnSwlvfef//wHe3t7cVaupPNopdWzJEZs+ez36vU49X7cMsqq31tvvcWYMWOKfXfy5ElcXFy4fv06JpOJ1atXExgYaOVt9bgo7V3l94kTJzJq1KjHzu9JURYdSvv9jzDZpxkTv1fu03wDvzHh3NxcHBwcWL9+PWlpaeKsZmlISUkhMDBQBIf9/PPPcXFxETcoFC23aB3Ko5CCfx6/LTeCSunQvLw8HBwcgPIt4ZX66vV6UlNTyc3N5d69e8THx4vT1bIsF3t+4cIFkpKSmD9/PnXq1CExMZFbt26J90taNYI5UNrVq1dJSEggNTUV+O3qktdeew2wjqx59+5d4uPjSUpKEiv/vLw8UlJSrN4rKCgQ92tZln379m0uXLjAnTt32LBhg7iXsTSNynKFlpiYSEJCgjgHojzLzc3lypUrxZ6ZTCbS09PJzs4mPT2dS5cukZycbFWO0WgkLS2NnJwcUlNTiY+PF3SzLKOwsJBr165x6dIl0tLSitVPp9Nx/fp1EhISSElJAcwhEjp37kxkZCQXL17k0qVLIpxMz549RbgFMN/IEhoaytdffy3yK8p4dTqd6PM7d+5w8eJFwRCNRiPJycnEx8cLZifL5gCfr7zyCuHh4Vy8eJHExETS09NJTU21ivqan58v+kvp07S0NPLy8rh27Rrx8fGkpaWRnZ1NWlpaibQEM6NKTk4u9rwkjcCyTxWaKbROSUmxOuip0+m4e/eucLVW+j0xMZHLly+TmZlpRSutVsu1a9esxrXyzGAwcOPGDeLj463KVZ7fuXOHS5cucf369WLniR48eMClS5dITEwUtM/KyuL777+nWrVqHD9+nJs3b4o2KAdaFe3q9u3bGAwGUlNTad26tbiBZ9WqVfj5+ZGSksLDhw+5f/9+sTF2//79YoFayxv+afy2XAqqBg0aAOWbcErdrly5gpeXFx07dmTgwIH4+Pjg7OwsGFlSUhK+vr5ERUXRq1cvPD09GTRoEM7OzlSqVAkPDw/69OlDQUGBYNrKoFeYx+XLl+nduzc+Pj4EBATQt29fLl++jCzL9OzZk9GjRwOISyAXL16Mj48Pnp6euLu7M2rUKPLy8tiyZQuurq4iRheYL7KsUaMGWq1WhAxYsmQJrq6uuLu70759e3r06IGXl5e4eaQoU1P+f+7cObp27YqXlxeBgYEMHjxYxLhJTEykffv2eHl54e3tTUhICHFxccBv5ofmzZszYsQImjVrhqOjI9OnTxdCNS0tDUmSaNOmDcOHD8ff35+GDRsyf/580RfJyckMGDAAT09PfHx8CAoKEmUA3Lp1iyFDhuDj44O/vz+vvPIK58+fZ8WKFdja2lKzZk08PDxo27Yt58+fJzc3l7p167Jnzx7RXoAxY8bQtWtXwdQsb2NR6ODh4UHnzp3p3r07np6enDx5kocPHzJ+/Hi8vLzw8fHBx8eHb775BqPRyLJly6hZsyY2NjZ4eHjQo0cPJk2ahL+/PxcvXhRt+Pbbb6lVq5YQDuvWraNRo0b069ePNm3a4OvrS2hoKC1atODVV18lMDAQR0dHZsyYIQSeVqtlxowZeHp64u/vT9u2bVmzZg1arVb0Z1Gaurm5ERAQQK9evThy5Ahgvm+zSZMm7N+/X9TvzJkzVKpUSVzlc/r0aV5++WUxJoYPH05ycjIAV69epV+/fnh7exMQEEDv3r359ddfkWWZtLQ0Ro0ahZeXF76+vjRt2pTo6GjRB4rAaNq0KS1btmT+/PnixputW7cSEhKCt7c3wcHBTJ48mdTUVLZt24arqyvPPPMMLi4utGvXjtjYWNzc3ESsPKPRyLVr16hYsSLXrl0jMzOTli1bWgmqpk2bkpmZycaNG7G1tSU3N1eMgwcPHmBnZ8fatWtLFPrlBf80fvuPElSWKy2Fgf1dg0BhTrdu3aJx48a0bt1aTM4VK1bw/PPPU1BQQEpKCi4uLjRr1swqMNmOHTvESqas/HNycggJCaF9+/YiFtfhw4c5cuQIOp2OXr16CY0KzEEoa9euzdatWwGzkHNwcGDOnDkcOXKkGOPbuXMnjo6OYtW5a9cuqyCWCQkJ2NnZ4e/vLyaj5epc+TstLQ1fX1969uwpzJgHDx7kxIkT6HQ6wsLC6Nixo2DmEyZMwNHRkQcPHgDm0AOOjo6cPn0aMN8WXaVKFXEf2KNHj2jWrBmenp5cuHBB0LBy5cpcv34do9FIWFgYnp6e4kLNTz75BGdnZ1JSUjCZTERGRhISEiJWwadPn2bv3r0AjBs3jmHDhln1wd69e3FwcODKlSvIsiy0p6+++gp3d3ehHSjjVPk3MTERe3t7wsLChHYNMGzYMGrVqsXZs2cB2LBhAw4ODuIW6bFjxzJ48GDx/vbt2wkKChIXKYN5j8TJyUloENu3b6dixYqMGzdOzIU2bdrQqFEjzpw5A0BcXBxVqlQR8X9OnjzJc889Jy5wTk1NZdWqVULLNZlMoq0TJ04kODhYlH/27FnWrFkj6BcQEGAV9+2XX36hdu3aZGVlcf/+fdzc3Bg0aJCo7759+zh9+jRarZbQ0FDatm0ryj169KjIq2/fvtSrV0+M1dWrV+Po6MiFCxcwGAxUqlSJgwcPAmYtbu3atcTHxwNQu3ZtvvrqKyuaKePo6tWr2Nrair66evUqgYGBbN++XbQ9KSmJ2rVrk5SUREZGBqGhocUEVXp6OgaDAW9vbxYuXCjKmjNnDr6+vmKultdQQqqgekqURThL00pRFf/vgjIAb9y4gYeHB2vXrgXM2kFGRga1atXi0qVLYrJ+9tlnACJMyb///W/q16+PTqcTK1nLpGhWR44cwcbGhoSEBMBsqlNgMBjo0aOH0KhkWaZXr14iZIoizOfNm0fz5s3ZunUrAQEBnD9/XuSxY8cOGjRoQG5uLrIsM2LECHEjveW9Yu7u7kJIWWpUyqbz9u3bqVWrlhASluaghIQEqlevzpkzZwTDz87O5sUXX2Tz5s3Iskzbtm158803BY0AvLy8hGb68OFDgoODxV6BcsGlo6Mj+/btIzExkcqVK3Pp0iWrfvL19SU6Oprk5GSqVq0qGJYlHY1GI4MHD6Z3796ibiaTia+//hoPDw/RJoUe33//PY0aNSIhIcFqI14Zr5cvX6ZRo0YiWkB+fj6PHj3CxsZGLCAU9OjRgw8++ACj0cjw4cPp0aMHOp0OvV7Ppk2baNasGZcvXxbvf/fddzRq1EjQd/PmzdSrV48b/z9MeWZmJi+99BLvvPOOFS3d3d3Fjdfnz5+nXr16zJ49WywMFCjjT9G+FixYgJubG2vXrrWqB5hvvPbz8yMmJkb8dvbsWWrWrElBQQEbNmygbt26IqKC5Zj48ccfqV69uhiLlnfJpaamUrVqVREpQUFUVBQLFixAp9PRpEkTxo8fT1xcnNW3ACEhIfTt25c9e/aIxYTSP0rUheTkZHQ6HQkJCfj7+4t+MZlMXL9+HVtbW5KSksjMzCxRUKWkpCDLMp988gkBAQHirtHAwEDh3KRqVH8eyr2gUn633MQ/deqUGAx/F3EVZn3t2jWaNWvGunXrxBmLtLQ07OzsOHfuHHfv3iUoKIhVq1aJlSqYTTb29vYltsHSM3Djxo04ODhw7949QYPCwkKrODCWG/AdOnRg7NixgnZ6vZ61a9cSGBjIypUrCQ4OFjfam0wmduzYgb29vZjsvXv3ZujQoVbnhlauXImrq2uxPSrLen755Ze4urqKy38NBoMwRR47dowXXniBa9euWa3W3d3dWbZsGUajkQ4dOjBlyhSMRiNarRaj0YinpycrVqwAEAx47ty5GI1GCgoKMBqNODo6sn37do4fP06VKlWIiIigW7dudO3ale7du6PRaPjggw84evQoderU4cqVKxgMBnFgUqnLsGHDRBRTxQz7e4JKMb8WFVQXL17E39+fzZs3C3pdv36datWq0bJlS7p27corr7xC9+7dee655+jRowcmk4nRo0fTq1cvQdPvvvvOSlCZTCa+//57GjZsKBZsGzduxM/PT9QlJyeHyMhIpk2bZkVLd3d3oWUYDAa+/fZb+vfvz6BBg4iKimL16tViX8myn9PT05k1axZ9+/alV69edO3aVZj+Tp8+LQSV8t3Zs2exs7Pj0aNHLFq0CG9vbx49eiTMicqY2LZtG/Xr1+fWrVtiXCsCOj4+nsqVK9OqVSsrWlWqVIkhQ4ZgMpmIjY1l8ODBov6zZs0Sl73++OOPjBo1ioEDB9KhQwfeeecdscd16tQpatasKTTdhIQE/Pz82Lp1q1h4KYLq+vXrpWpUyj7h5cuXcXR05MyZM8TFxWFvb8/58+etFnHlEaqgekpYbrwWJZzCCEwmE0OHDsXR0ZFatWoB1g4EfyUsBVVAQADr1q0TdU1PT8fOzo5ff/2Ve/fuERQUJDQDhcGUJagsNapTp04JbcTye6WsohpV//79rVzJAaZPn06rVq3Yu3cv/v7+XLhwQZS5bt06HBwcxCR//fXXiYiIsLoJf+rUqXh4eJSpUe3du5eaNWsKzc+yX65evUq1atUEgzOZTKSmplKrVi127tyJLMtERUWJeDmKhunh4cHnn38OmG/Bb9WqlWAYWq0Wk8mEg4MDP/zwA0lJSdjY2DBr1ixWrlzJ559/zsqVK9m/fz/JyckkJSVRtWpVsZ9SdNwMHz6c/v37i2insiyzb98+6tevX8z09+WXX+Lh4SH2RIqa/uLj4/Hz8xPmU4PBQH5+PnZ2dkycOJGvv/6aL774gpUrV7J7926hmY0cOZI+ffoIpr5161aaNWvGlStXRN6rVq2y0qg2bdpE06ZNuXr1KmCePxEREbz//vtWtHRzcxMu1gp0Oh3nz59n/vz5vPDCC8J0VvTeOIX+J06cYNCgQfj6+gLm/aiAgABiYmLEmDh06BA1atSgoKCA6OhoYUIDrJxCzp07R7Vq1YSGazmuMzMzsbGxYcqUKaxatUr05Z49e6zMoGDeI163bh3169cX8ewUJCUlsW3bNlxcXPj4448BOHbsGDVr1hSOLFevXqVZs2Zs2bLFaq/VxsaGGzdulKpRKVqiTqdjyJAhDB06lDFjxtCzZ08xTsqr2Q9UQfXUsCScvb29YIJKZx88eJDAwEA0Gg0ajYamTZsC1oP/r4Sljdvf318IKr1eT3p6OjVr1hQaVWBgYDFBtXbtWurVqweU7BaqtLugoID27dvTvHlz4Z21ZcsW9u3bh06nK6ZRHThwgBdeeIGVK1cC5olZv359Fi5cSFZWFo0bN2bWrFmAeZI7OTnRsGFDsUd15MgR7O3thYA4duwYzz33HH5+fuKEvuWAVur56NEjWrVqRbt27bh79y5Go5GNGzcSGxuL0Wike/futGjRgtTUVDG5vb29ycrKwmg0EhERIYLAKWY5d3d3oVEVXdkWFBRgMplo0KAB0dHRGAwGBg4cyJAhQ6zo+Omnn3Lz5k1MJhP9+vXDy8tLmAd37dolTD7vvfcezd44lO4AACAASURBVJo1s/o2KyuLBg0a8MMPPwC/jdHXXntNOFNY3iqi9OPFixdp2rSpEFTKGJ08eTLt27cX5jiAL774gp9++gmAKVOm4O/vL55dvXoVJycnEYAuPj4eBwcHXF1dBY02btyIr6+vEFQ5OTm0a9dOCCrlPVdXV6sx8eGHHwpBu3fvXqpWrcqFCxesFh+KVrl69WpRp/feew9HR0fAbKKTJEkslO7du0eLFi149tlnycrKIiMjg+DgYF5++WXhvbh+/XqOHDmCwWCgS5cuYu9WlmW2bdvGrl27kGWZCRMm0KVLFysT7bJly7h48SLJyclMmTJFCMDExETq1KnDN998Q2FhIZMnT+aXX34BzELPw8NDxGI6evQoNjY2QlDl5OQQERFB7969xTjr0KEDGo2G27dvk5GRQYsWLZgzZw4AK1euxMfHR+xzAsTGxlK9enVq1arFtm3bxFgor2Y/UAXVU6MkjQrMbtJdunShWrVqaDQaKlasSIUKFfD09BR7Vsq3lodUSzJTWZqqimoGT/pM+S0xMZFmzZqxfv16YdZKT0+ndu3a/PLLL9y5c4eQkBBWr16NyWSyElSKRqU4KZRUBphdzV977TVcXFxwc3NjyJAh3L59W3j9Kc4UCvPesGEDzZo1o0GDBri6ujJz5kyxyvv+++/x9/fH2dmZzp07M2HCBJycnMjPzxfvrF+/Hg8PD+zt7enQoQMjR44UXn+KWc+SxgqDvnnzJsOGDcPJyQkPDw9GjRolTCwpKSkMGDAAZ2dnnJyciIiIsNqfaN++vWAmSju8vLz44osvhAmqTZs2zJs3D5PJJMxzDRs2FCvpjIwMJk2ahJeXF40aNSIkJITZs2eLsNqZmZlMnDgRd3d3XFxc6N27txBaN27c4KWXXsLe3h5JksTeTe/evXnttdfEJL537x7Nmze3WnhYHsA2mUxcvHiRwMBAsUpX6FpQUMCcOXMICAjAwcEBPz8/Jk2axP3794W7eNu2bbG3t8ff35/4+Hi2bduGl5cXzs7OdOvWjfHjx+Pi4iJMtYrpT3HUyc7OJjIykn/961/Isiy0Q09PT1auXInJZCIrK4sPPvhAjIPg4GA2bNggrgZSTNgmk4kLFy4wbNgwXF1dcXFxoVOnTvz8889WGlRISAhNmjQhPDycqVOnUqdOHdHviYmJDBo0CCcnJzw9PRk7dqw4NpCSksL48eNxdXXF1dWVgQMHinbk5uYyc+ZM/Pz8cHR0JCAggKlTp5Keno5Wq2Xp0qWEhobi5OSEt7c3CxYsEObgtWvXEhERIYL2TZkyhczMTEwmEydPnsTOzk442JhMJs6cOUPr1q1xcnIiNDSUGTNmWO1RtWrVijlz5gjBbWn6M5lM5OXl8dJLLxEUFCQWXpZXLv0RPmP5rCReVvTZ45ah/J2Tk6O6pz8Jigqq/Px8/vWvf1GxYkWhRVWoUIEKFSqg0Whwd3cvF/VVUFTNt9SSnuQgXVnfKUzncVCWSbSoFlqaiUIRXqW9Z1k/y2dGo1F4/kFxWlk++z1Y5luUHpb5PkkZCkMrCbm5uVb0UTzb0tLSMJlMrFmzhvDw8BLLtERZdVWOApQEZV+pJDyJmbto+0obg8q+0eNAq9WWmo9Op7PSforSpqjDgyWURUdJ3xYUFJRaphIhvCQokXNLgiUjL4qy+k35tuiz7OxsgoKCmD17dpnflidYtuP5558H1AO/jwWlUwsLC7GxsSE0NFQIqJKSr68vubm57Nu3jxs3bgBmm7mysVtYWEhMTIxwZU5ISCAmJkYM3piYGLFqvn37NjExMWKld/jwYXH+JjMzk5iYGJL//9mPn376SXg5abVaYmJixL7MpUuXiImJERM2JiZGuATfunWLmJgY4YqruJiDeRLHx8eLSXfr1i2xX6Dko5SRkJBAXFyc2HuIi4sT+1fJycnExMQIT6cjR45w7NgxwOw+HhMTI1zolc3fou2QZZmLFy8SFxcnBm5sbKxwqS4oKLByb1cOVYLZFBQbG2vl/q3QKjc3l9jYWGGiunjxIjExMeh0OkwmE3FxccJck5SURExMjDCRxcTEcPToUVFGTEyMWLGfOnVKuDTn5OQQGxsrVuUXLlwgNjZWXD4aExPDuXPnALMGFRcXJw5mxsTEiP0SpR0KrSRJYujQoRQWFvLaa68xYsQIrl27hl6v59y5c8TExAgHDcsyrl27RkxMjNDoLMt48OABhw4d4sGDB8iyzLFjx6xodejQIa5fvw7Ar7/+yqFDh4TWFhcXJ87CJSYmEhcXJ0y3MTExnDp1CjBr4jExMeIIgFKGLMs8evSIQ4cOiXF99uxZsdek0+mIiYkRGm9iYiKHDh2yGtenTp1ClmXu3LlDXFyclYv5oUOHALPp1HLu/PLLL8TGxlrNT2UsKe0oaX7evXuXuLg4cW3R4cOHRRkPHz4kLi6O5ORkZFm2mp96vZ5Dhw5x6dIlZFkW81OZZ8r8lGWZ27dvc+jQIWEOPXLkiCgjMzOT2NhY4VRz5swZDh48iE6n49SpU4wZM4aGDRty8+ZN4uPjOXDggFhsxMTECNNu0fkZFxfH4cOHgeLz03Lu5OfnW/GACxcuiHbIsjm0u8IDbty4QUxMjGhHbGys4DPK3Llz547Y/961a5cwe6oa1WNAEVR6vZ5nn32WSpUqodFoqFy5stCiFK1Ko9EQEhLC9evXCQkJEWaYkSNHIkmSMBVJkiRs9Z988gmSJFkxnwEDBgDmDWlJkkSHtmvXjtatWwPmASNJkjg7Mnz4cCRJQpbNtwlIksT06dORZZmZM2ciSZIwC0iSxODBg4U5TZIkwajCwsJo06YNAF9//TUajYZ27dqxatUq0dZVq1axfft2JElixowZyLLM9OnTkSRJMB9Jkhg+fDgAa9asQZIkMflat25Nu3btkGWzm7skSWzatAlZlhkwYIBox61bt5AkiU8++QSA999/H0mSSE9Px2g0EhISwsiRI/n1119p3rw5Go2G119/3aqu586dIzY2luDgYOFy3rdvXyRJAswTSJIk5s2bhyzLTJ48GUmSyMrKQq/XI0mSuMLoq6++QpIkcfizefPmdOrUCVmWOXDgAJIksW3bNmH6VMq4evUqkiSxcOFCZFnmnXfeQZIksrOz0Wq1SJLE+PHjkWWZFStWIEmSYJSSJNGlSxdkWWbPnj1IksQPP/yALMsMGTJE3Id2//592rRpw9KlSwHz1UuSJJGXl0deXh6SJPHWW28hyzJLly5FkiThtSdJEt26dUOWzfcnSpLEnj17kGWZLl26iP64ePEikiSxYsUKZFlm3LhxSJKEVqslOzsbSZKE+/nChQuRJEksACRJomfPnmLPR5IkDhw4gCzLdOrUiebNmyPLMr/++iuSJPHVV18hyzJjxoxBkiT0ej1ZWVlIksR7772HLMvMmzcPSZK4ceOGGNd9+/YFzO7xkiQRFxcnnGJCQ0ORZZmff/4ZSZL4+uuvhbNISfNTluVS56csy2zcuFHMT1mWxfyUZdlqfsqy/KfMT1mWCQsLIywsDFmWOXHiBJIksX79emRZZvDgwUiSxKNHj+jXrx9hYWEsXrwYgA8//PCx5icg5idgNT8BMT/BvJAubX6aTCYkSWLkyJGCl0iSxM8//wxAaGgoUVFRgFloSZJkNT+DgoLEu+XZ+aPcCaq8vDzq1q3Lhg0b8PHxEcJJEVxKcnNz+5tr/Ofh8OHDTJgwgREjRtC9e3fGjh3LhAkT6N69Oxs3bvxb62ZpvoiOjmbYsGG8++679OvXj+7du/PWW2/x5ptvsnnz5r+xln8NippyyrNpR8Vfj3/SeLAUShqNWQyopr/HQEnOFAkJCUyZMoUaNWoU0648PT0xmUzi+hIw28kVdVgxLyh7AXq9Xmx8g9nEqNj8lTM/iupbWFgozAOKA0TRMpQ6l1SGpRmzaBmW5T/u3oBl+U9bhuUZlqLtUNr4OO0oC0oZCh0ftwyFjk/SjrLKKIlWf6SMssZDSWUobfyzyihrXJdUhtLGP6uMsubOX1HG3z0/y2qH8vcfLeNp5+fTjmul7pmZmTg5OYnn5RXlTlAp7umWm81Hjx7l1VdftXKo8PDwAP4+9/Q/CmWQwW8DqKRkGX7g766nMgnKYz1VqFDx+LDkt6p7+hOgJI1KOakO5g3/HTt2CC9ARVD9XQd+VahQoeKfClVQPSVKI5zi6aTg7t27TJo0CWdnZ0AVVCpUqFDxpFAF1VOiLEGlPLfcAFTcP1VTkwoVKlQ8GVRB9ZQoi3CWwkoVTCpUqFDxx6AKqqfE4xCuJIGlCi4VKlSoeDKoguop8U8jnAoVKlT8U/FP47eqoFKhQoWK/zH80/itKqhUqFCh4n8M/zR+qwoqFSpUqPgfwz+N36qCSoUKFSr+x/BP47eqoCqhDoAIB24ZdMzyd+VclxIkTUlFY92U9l7RM2Il1aOkb4vmrzwv+t3jfi/LcrF2Wra1aNj5stpbkgdmWXWxzKMkWhel+e+lktpfVt2Lfvt7/Vk0v5LqW9a4KRrLyLK8ouWU1W9lvfc4bVfy+j26WgbZe9oxWtp7pY1DyzZY/l50LJRE+5Le+73+LK3uTzteipbxuDzir0Z54LdPAlVQPQaedCD9kevyLcsqq/2l1elxvi8rcNzT4PeE1ZOgNGHzd6KkYHml/f9xnv2R84CPc6bwccbf047RokdDSsvH8veyyirp2ePS5o+MDUUY/dn5Pkn5ZY2rv6J8KJ/8tiSogqqEOgBcv36do0ePkpKSYjWok5OT+eWXXzAajSIwXnR0NNu2beP48ePFIsvqdDouXrzIvn37iI6OJjo6mi1btnD48OEyNSqlvEePHnH48GG2b9/O3r17RdwhBZcvXxZB9IpqP/BbYLlt27axf/9+UlJSrMo0Go2cPXtWBOmzFDoXLlwQodoLCwu5cOECe/fuJTo6mh07dhAXFyfiB1nmWdJqUa/XEx8fz/79+63osGXLFq5fv86ZM2dISkqymsDK37dv3yY2NpYtW7aI72JiYti/f7/IY+fOnSLoXtF6GAwGtm7dKt7dt2+f6Dflt/T0dK5fv15mfyq0yc3N5fjx49y5c8eqHJPJREJCAkePHhWhz5V+uHLlilXASTBHB/jhhx/YtWuXVXj3wsJCqzGzc+dOEQC0KIO7fPkyu3btYvv27Zw+fVqUZzl+fvrpJ3bu3El0dDS7d+/mypUrANy4cYPo6Gi2bt1KdHQ0hw4dYvfu3YIuR44cEdpD0TFqWYekpCT27t3L9u3bOXToEOnp6SW+d+7cOXbs2MGOHTtEUEalTQ8fPuTEiRPid6W83NxcfvrpJxHU9N69exw9etRqvII58OBPP/0k+uvG/w+MqYwZpf/PnTtn1S+ZmZnExcWxfft29u3bJ/LdvXu3GBt79uwhLi5O0GnLli2kpKRw8+ZNqzKUZ0ocNcCKR2zfvp0DBw6I+GRKO1WN6vehCioLWE6qkSNHotFoGDhwIPBbKO033niDJk2akJeXR48ePUTAw6ioKPz8/Ojdu7cQbmCOqunl5YWtrS2RkZGEhYURHh4ugutBccau/P/48eN06tSJ8PBwIiMj6dSpEy1btmThwoXijsMOHTrg4+MDIKL+Ku04deoUHTp0ICwsjKioKNq1a0d4eDg7duwQZeXk5NCwYUOGDh0KYBVOIDg4WAQMvHfvHq6urtSpU4fIyEgiIyPp2LEj7dq1Y9myZVbhAyxhyRD8/f2pUaOGFR3atWvH9u3badWqlQgkqdfrregQERHBiy++SHh4uPhOo9FQvXp1wsPDCQ8Pp2vXriJYXVGzUEFBAVFRUeLdmjVrotFoRF7h4eFcuHDhd/tTuXNy3bp1aDQahg4dSn5+vpWA6dy5MxqNhmnTponfALp3705wcLCojxJUsX379nTu3Jl+/frxwQcfAObovx4eHtSqVYuIiAgiIiLw9PRkzpw5YhGi1WqZN28ezZs3JzIykqioKFq3bs2IESO4c+eOoPvhw4d55pln8PHxoV27doSFheHh4cGmTZvYv38/bdu2JSoqipdeegmNRkPDhg2JjIwkPDyct99+G51OV+LiwWg0otPp+Oyzz3jppZeIjIykffv2or5K9GiTyURGRgYTJ06kRYsWYuyEhoYydepUIdB37twpQvncu3dPlHf69Glq1KjBN998A8Cnn36KRqPB1dXVKhT9mjVrsLGxEYs2Zf6Gh4fTtm1b0aYlS5aI8X3w4EHat28v+rtjx440b96cL774gu7du4uxUbduXTQaDa1btyYiIoLw8HB+/PFHXnvttRLLWLZsmaC/MqYiIiJo164dnTt3Jjw8nMmTJ5OWllaqafW/jfLAb58EqqAqoQ4A7733HnZ2dri6unL06FExcT744ANCQ0PRarUMGDCAV155RXyTkJBA1apVmTt3rvjt0aNHBAYGMmvWrMcqXyknISGBunXr8tZbb4lQ5gDbtm2jV69egikPHDiQ8PBwABGHxmQycfXqVerVq8eIESOstIJp06Zha2srQrvn5uYiSRITJkwAzBqgwpA7d+5Mnz59AMjIyMDX15dFixaJvIxGI+vWraNatWrMmDEDMGsvlnRU2pOTk4MkSYKBF8WuXbt44YUXxGpTyefWrVvY2Niwe/duq/e7devGxIkTf5emJWH69Ol06NCh2O99+vR5rP7s06cPTZs2pWXLlpw+fVq0V6vVMmLECGrVqkVQUBCXLl0S7R85cqQo8/jx41StWpWVK1eKfFNSUli+fDlgDuHu5+fHvHnzxPMvvvgCjUYjorHOmzcPW1tbfvjhB/HO1atX8fHxoWPHjmJh9dNPP1GrVi0SExPFe5MnT6ZmzZpkZ2dbtd/JyYlt27aVSjeFoSqa5ZIlS6hTp45V0Mz8/Hxmzpwp+kahSePGjUVoeYUG9erVY+zYsQDs3bsXFxcXbG1tRVRuMIev9/DwIDo6WtChTp062NnZsWrVKvHe5s2bcXd3FxaAN954g6CgoFLb8vPPP1O7dm2mTZsm7g0Fc7RvZcwr+Oqrr8QiwxLjxo2jRYsWpZYB5ki9nTp1svotNjaWhg0b0rVr12L7y38VygO/fRKogqqEOgAi/Pfo0aOJiooSq7CpU6cSHBxMQUEB/fr1o02bNuTk5AjBERYWRu/evUVeWVlZ+Pv7M378eHJycsjIyCAnJ0doP0XLVbSSPn364O/vL3631HTS0tLE5OrXrx8vvfRSsXdGjBhBo0aNrLQK5dlLL71Ex44dMRgMaLVaAgMDeeONNwBrQdW+fXt69OghyvT29ua9996jsLCQnJwckfeCBQuwtbXl1q1bVmYV+E1QZWdnExwczMiRI63okJ2djcFgID09HScnJ6ZPnw4gNJUZM2bQsGFD8vLy0Gq15Ofno9Vqadu2LUOHDkWr1YpU2v6WLMtW377++uu0bNlShKjXarUYjUZ69+5dZn/KsszJkydxdHTk8OHDvPTSS3z44YdWfdSzZ086depEr169ePXVV8WzoUOHirDju3fvpkKFCmL1XxTKouCdd95Bq9WK4KC1atVi+fLlpKamYmdnx0cffQQg2gDw66+/8uyzz7JhwwbALBBq1KjB7t27ycnJQa/Xc/78eZ577jn2799PYWEhubm5ZGRkUK9ePZYvX05hYSEFBQVCm7Jc8Sv9effuXerVqycWYIWFhVYM/8aNG4A5xHqVKlWEoCkoKBBa0IYNG6hSpQpXrlzh2LFj1K9fn48++ggHBwcSEhIwmUz8/PPPODs7C2H42WefiXHSpEkTMjIykGWZTZs24eTkRHx8PGCev+7u7uTk5JCVlUVubq6YdwAdO3akdevWYnxYxlR78OAB2dnZFBQUoNVq+eijj/D09CQ1NVWMI6PRyNixY/H29i5WhmVQw379+tGqVSu0Wi3Z2dliDp44cYIKFSoQExNT5l7ffwvlgd8+CVRBVUId4LcV8OXLl7G1tWXXrl3IssykSZMICQlBq9XSp08foqKixDexsbE888wzfPnllyKvhw8f0rRp01I1iaLlK4LK3t6eqVOnFvPqKxoosm/fvlaCSplsbm5uDBkyBPhtb0Vh5jNmzKBGjRpkZWVhMBgICAhg/PjxxfKIiooSgio9PR1vb2/RDoW56/V6rl69SqVKlfj+++8B62CWlhpVs2bNStWCjEYj77zzDgEBAeTl5Yk2+/j4MG7cOJGXUrd27dpZCYLfW5FaMoM33niDVq1aWUVYlmWZnj17/m5/Tp48WSwglLGQlZWFLJsjpnbs2JExY8Zw7Ngx7OzsOHfuHLIsM3jwYCIjIwGzIOrcuTN16tRh8ODBLFu2jISEBFGPzMxMfH19mTx5MiaTSURiVUxgR44coUKFCsTFxWEwGNDpdGKcFBQU4OTkJPr+2LFjPP/88/zyyy+CzoMGDcLBwYGsrCzhiZabm0v9+vX56quvSqWn5fiMjY2lSpUqnDhxAr1eL0zRln0EsHDhQuzs7Lh27RoGgwGDwYDRaMRgMHD16lWee+45vvrqKy5cuICNjQ0JCQm0b9+evn37AmaNsEmTJmJsLVu2jEaNGnHnzh2aNGnCzJkzAfjmm29wdnYW+4Bjx47F19e3xLGg1Wqxs7Njzpw5Ygwr7bMcu8oYnD17Nt7e3jx69Ei0EeD1118nICCgxDIUWC4klfmn1+sxmUzUr1+fSZMmWZX1Z6Ekp5uS9o5VQfWEKA+Es+zI0aNHExoaCpjV97CwMMBsOgsODiYvL4+RI0fy3HPP4eLigouLCzY2NnzwwQdiIIJZEwkLC6NmzZq4urri7OyMs7MzO3fuLFauIlCys7OpXbs2ixYtslrRWjoHKH8X1aiUsNUODg5MmzZN1MNkMom9n5UrV1KpUiXu37+P0WgkICCgmEYly7KVRlVUUFmuGm/fvk21atX44osvBMNWoJSflZVFZGQkNWrUwNXVFScnJ0ELhUkfO3aMOnXqCDPfwYMHqVq1qticVpgq/PmCymg0Mnz48FL7UxEgyl4RwI8//sgLL7zAoUOHxKr85Zdfpm/fvphMJlq1aiX2/oYPH24lBB8+fMjGjRsZN24cYWFh1K5dWywWMjIy8PHxYcqUKYDZPDtmzBief/55MjMz2bhxIzVr1hQOFpbu2lqtlubNmwszY2xsLPb29tSvXx8XFxccHR1xcnISgstgMGAymR5LUFm62G/cuBFbW1uhwRR1DVcY/pQpU3BzcxMaqqV79p07d6hbty6zZ88mISEBGxsbLl++zC+//MJzzz3HlStXOH/+PE5OTkKjWrZsGQ0aNECWZb788kvq1atHfn4+mzdvpnHjxqI+77zzDs8++6wYY+7u7jg7O/Pdd9+RlZWFjY0NX3/9tZUp09LByLKtpQmqiRMnUrly5WJlKHVVNCrL+WlJK1dXVzGG/9saVVGBVR747ZNAFVQl1AFgzJgxSJKELMucOHGC2rVrc+jQIRYsWEBgYCAFBQX079+f5s2bk5ycTHx8PD179iQwMFCYI8DMoAMDAxkxYgTJyckkJiaSnJxMbm5usXKVSWMwGHjhhRf4+OOPS9zItkRJGpUsyzRu3JjXX39dfKcwUlmWmT9/Ps899xxpaWkYDAb8/f0ZN26cEHIKY46MjKR79+5AyRqVMplv3rzJs88+y/r164GSNars7GwkSWLQoEEkJydz5coVkpOTSU5OFivNvLw8WrZsyYgRIwDo378/kiQJwfffFFQmk4k+ffqU2Z8//PADNWrU4OeffyYrK0v07ciRIwEz03/llVcEzbZs2YKdnR2XLl1i/PjxREREFKur0WgkOzubf//731SsWJHNmzfz8OFDWrduzfPPP4+DgwMuLi60adOGmJgYAHbu3Mmzzz7LqVOnhFCw1Jo9PT3p1asXAEePHqVmzZps3LiR5ORkNm/eTP369cX+l2Ley8nJeSyNSiln165dVK1aVXgrWmollkx+1qxZ1K1bV5iFFY3KZDKRlJSEjY0NS5YsIT4+nho1agjhGxUVxcCBA0lKSsLR0dHK9Fe/fn1MJhNZWVm4u7vz6aefcujQIRwcHISgGj9+PC4uLiQnJ3P16lWSk5O5ceMGOTk55ObmYmNjw9KlS8UCqOgYsfy9NEE1btw4PDw8rMpITk4We39FBZUyzhWN09HRkTfffFOMgz8TSv8VHeNFTbiqoHpClEdB1bJlS/HbsGHD6Ny5M2+99RahoaHk5+fTt29fwXzAzIydnJyEOg+/bYxb/lZW+UqbW7VqZbXhr0xw+I1hKxOhdevWGAwG8vLyKCgowGAwEBUVZbWZrNPpxKDt3bs3/v7+wnwXHBwsvBvz8vLEe0FBQQwYMAD4bY9q6tSpoiyFNt9//30xzUeBpekvKChImPGKvqMwuoULF+Ls7Mz58+dxcXFh6dKlgjaWZtD/humvV69eJfbn5MmTARgyZAg1atSgYcOGNGjQgIYNG1K/fn3q169PVlYWAF26dKFPnz6iPhEREQwdOpShQ4fSsWNH0ZdF6QPQqFEj3nzzTQoLC/H29uadd94R+4GW9bx06RKVK1cWzgRarVbQ7969e1StWpUFCxYA5j0qGxsbTpw4IfJYvXo1NWvW5NKlS4JxPq7pT6nvlStXqF69Ol9//TVgbTIGhAPPtm3bqFSpknDeKSwsFAuPw4cPU6FCBY4cOcJPP/2Era2t2Lc7efIk9vb2LFiwAF9fXzZu3Aj8plEpziJfffUV3t7eQpgo348dOxYvL69ibVGYtZ+fn3CaUASo0jbLg7lQtumvadOmxcqw1FiKzk9l/CYlJVGlShW+/fbb/8oelZKfYplJTU0VzywtMrm5uaqgehKUN0E1btw44S5tMpk4d+4c7u7u+Pr60r59e/Lz8xk4cCBRUVFiRQowf/586tSpQ0ZGBmAWVEFBQbz77rtW+0Ql2YuVsgB27NhB9erVxSa0glu3bvHhhx8KU0r//v1L9GA767l4NwAAIABJREFUfvw4lStXZs2aNVa/79q1CxsbG/7zn/+I395++20aNmwomC2YGVHVqlUFM0xPT8fX15f58+db5Xf16lWcnZ3p2bMn8Ptef++9916xuirfAZw/f17Q2MvLi6SkJJGPpRBs3749o0aNKpGGJcGSGUyYMIGwsLBigqpfv37F+nPevHnUrVuXS5cu0aBBA/bu3WuVb2FhIQ0aNBAr/h49egjhbjKZiIuLw97eHn9/f6FpHTt2jAkTJlgJoJs3b/LMM8+wdOlSCgoK8PPzE95vlvs/iml18ODBeHh4cPfuXZFHQUEBgwcPxsXFhfv37wNm9+7atWuLc3uyLPPo0SPc3d2tzL25ubk0bNhQ9Hdp9FTqoNfrGTFiBN7e3iQnJ1u9c+jQIaGxZWRk0KJFCzp06GA1vtLT02ndurUwqcfGxlKvXj0uXLggtP/Ro0dTt25dgoKC2LRpEwArVqygcePG5OfnI8syqamptG/fHmdnZ5o3by7OYb3xxhsEBgaW2AaA9evX8/zzz7N//36r35OSkpg+fbpVXefMmYOfn18xQTV+/HgkSSq1DFmWGTBgQLH5+eDBAzp27Iirq6sQ6H+2oFLmiZ2dHRqNhjp16nD48GGroxQmk0nVqJ4U5UFQWQ6W/v374+HhIeoE5s1zjUaDs7MzhYWFdOjQQWysFxQUYDKZSE9Pp3bt2rz22muA+fyQg4ODMA9ZekYVRdG9qLlz5+Lp6cnEiRNZsmQJn376Ka1bt2bgwIHk5uYiyzJdunTBzs6O5cuXs3jxYpYvX86yZcu4evUqixYtwt3dnXfffZfly5fz4Ycf4u/vz7vvvmt1VunWrVtIkkSHDh1YvHgx8+fPJyQkhK5du4qVa0pKCg0bNqRly5asWLGCRYsW8eGHH9KqVSu6devG/fv3rUw+CiwPHnt6euLn58eKFStEXZcvX86PP/4otCWTySTOwLz++utWgt1yoz4gIEAIx6J9V1rfKnUZOnQonp6eVn1hMpmIiIgosT/r16+Pk5MTL774Inl5eej1evR6PQUFBciyTI8ePfDx8aGgoECcKQKEebdPnz5oNBpCQkIAOHPmDI0aNWLAgAGiX1u0aEHbtm3JyMggMzNTuG4XXdwomvS9e/fo0KEDbdu2ZcGCBSxZsoShQ4fStGlTYSIE84JFo9Gwb98+4LcFwfLly6lUqRJnz54FzAuqihUrsnjx4lLpWbQOaWlpdOvWjdatWzNr1iw+++wzJk+ejI+PDytWrBDf/fLLL4SEhNCtWzeWLFnCokWL6Nq1K6GhoZw/fx5ZlsU5KqU+APHx8VSsWBGNRiME1dy5c3n22WcF7cHsmq7RaNBoNMKZYvjw4VSqVInly5ezZMkSVqxYwfLly9m1a5cQ/B988AHe3t5MnjyZpUuXinNpI0eOtPIinTp1Ki+++KIQXso4GjZsGJUrVy5Wxp49e4SGazk/Fy1axNy5c3nllVeQJIkzZ85Y0fXPhNJ/tra2VKhQQdDn3XffFUccwNzvqqB6AlgKKnt7e3Q6nVDBlcOkYF4JKCthZU9FmXyKectyT0YZMHq9XqwilHyUAWswGIqVsX79epYtWyY2mvV6PTdu3GDy5MnMnj0bg8HA2rVrWbx4MXq9XuSh0+lYu3Ytc+fOpbCwkEePHrFgwQKio6OtyrRsh9JGpR2FhYVCQPz888+8/fbb9O/fn7Fjx7JmzRoxYUwmE+vXr2fUqFH069ePXr160aNHD3r37i1W/seOHePdd9+lX79+jBo1SjAsxQVZofu9e/eYPXs2gwcPZvDgwSxdutSqrunp6axYsYLhw4fTo0cPBg0axOTJk9m6dauVycSSjjqdjoKCAtGvy5cv59VXX6V///707NmTbt260adPHzZv3izarOwJjh8/nnPnzgGIg53KSr6wsJDPPvuMjRs3CjoqgsySjsq7ynhQXK6jo6NZvHgxeXl5Vk4IK1eu5PPPP8doNJKXlyfav3r1akaPHs2q/8femcfHfH3/f7SKUj5qL1GEZmoNkkhGLAlFiAwiba2111aq9iVRai1VXaiWGqVVaq+iQ+xbYvuqVkKDSCIiCdm3mUnm/fz9Mb/37XtGYqu2tO/X45FHa97v9z33nHvvOfece+69q1aJcuRQrNls5uDBg8yYMYOcnBy++OILEQ7LyckhJyeHX3/9lYkTJ/Lpp5+KNr9+/Trz589nwIABDBs2jM8++0yc6JCVlcWcOXPEnqacnJy7+JAz51atWkXfvn3p27cv8+fPFx6oxWKhoKCAqKgoJk+ezJUrV+xknJiYyLhx4zhy5IjwsqZOncrJkyeFcSxq7CjT4a1WK99++y1vv/02/fv3Z/z48Rw4cEA8k/txamoqixYt4o033mDAgAEizV4e+5GRkUyePFl4iHl5eWRmZrJ27VrGjh3LuXPnKCgo4NixY0ybNk1MAgoKCrh16xaLFy9m2rRpxMfHYzKZ+Omnn3jnnXfo3r07PXv2FH1u3rx5diG4I0eOMGnSJPr06cOwYcPYuHEjZrMZs9kseNy7dy8ffPCBoCn3uZ07dzJ69Gg7GoGBgSxYsEB8++2334rx2bt3b0aMGMGaNWuEIZTb1VEHKEP1yrXjwvp1YbpMLqd8+fLCSD333HNoNBpq1KjBBx98IKIy1atXF7J8UvHEGSr5pASwj+X/W6HMkHP8t2Mq+uPCw3TIB53pOc7AlXw48vgw9B6GvvLdwjIPHwV/RTbWvcp8GHqPexZeGJRylMOOMh4XH4+KP8P/3yG7JwFy6M/RWMknbaxfvx4nJydANVQPBLnjWCwWSpQoQe/evZEkia1bt6LT6Th06BBgv1Hv3Llz6HQ6Vq9eDdhSynU6nQjZ6HQ6goODAVucWafTibPpdDod/fr1A+CHH35Ap9OJBd+OHTvi7e2N2Wzm1KlT6HQ61q5di9VqpX///ri7uyNJEvHx8bi7uzNr1iwkSWLOnDnodDpiYmIwm83odDoGDBggvCydTsfJkycFDTmBITo6msDAQDETfe+99/D29kaSbKnf7u7uhISEYDKZmDFjBl5eXiQmJiJJEh4eHvTr1w+TycTKlStxc3Pj2LFjFBQU0LZtW9q1a4fZbGb//v24ubmJxdt+/fqh0+kEDU9PTz744ANMJhOTJk3C3d2d5ORkrFYrOp2Ot99+G7PZzBdffIGbmxsnT54UPMox+FOnThEYGMjx48cFH/K6THJyMu7u7sydOxeTycR7772Hm5sbiYmJ5OXlodPpxCkFK1aswM3NTaRQt2zZkq5duyJJEqGhoeh0OjZv3ozFYuH1118XpwNkZWXRo0cPsfC+ZMkSkV5vMpnQ6XSMHTuW/Px8Pv30U3Q6ncgS0+l0dOnSBYvFws8//4xOpxOnPgQEBODm5obFYuHy5cvodDo+++wzJEnivffeE3upsrOz8fDwEGs/n332GTqdjoiICEwmE+7u7gQGBiJJEj/++CPu7u78+OOPmEwmunTpgpeXFwC//fYb7u7ufP7554BtvUWn02EymcjIyECn0zFp0iSsViuLFi3Czc2NixcvYjab8fT0FBuUd+zYgZeXF7t378ZqtdK1a1datmwJ2DYGu7m58eWXXwK25AM3Nzfy8vJITU1Fp9MxZ84cwHZkVGBgoPCOe/ToIdYHt2zZgoeHh9g83L59e5GEpByfVquVQYMG4ebmRm5uLgkJCXh5eYnxOX/+fNzc3IiNjbUbnxaLhXXr1uHp6cnRo0cpKCjAx8dHrB+fOnUKLy8vVq1ahclkYvDgweh0OvLz84mNjcXNzY1p06ZhMpkICQnBw8ODmzdv2tEwm80YDAbc3NzEKTTt27cXG7SPHTuGu7u7yGodMGCAoBEdHY2bm5sYn/KBALK3Utj4PHHiBFarlbZt24o10aNHj6LT6fjhhx8AxPgEiIuLQ6fTiW0RwcHB6HQ6bt++bTc+web963Q6EUItV66cnaHSaDQUK1aMEiVKoNFoKF68ONWqVQNUQ/VAkA1Vbm4uFStW5Pjx4xQUFBAbG4vRaBQNf/DgQfbt2wfY1n+UB0mGh4djNBqFO2w0GkUW0MWLFzEajWK9yWg0ikyomJgYjEajCEUcOHCA0NBQwLYYbDQaRUglLCxMhM/y8vIwGo1iAVc+SFQOdxiNRmGYrl+/jtFoFIdrGgwGNBoNLi4uVKhQAY1GQ6lSpXBxccHZ2ZktW7YAtrCP0WgUsfcLFy5gNBpFaMFoNBIWFgbYFoKNRqNI5AgNDRXGLykpCaPRSExMDGDbGS/zkZ2djdFoFEr7l19+wWg0ivCC0WgUx99cvXoVo9FISkoKYAuLyGsiH374IRqNhnLlyuHi4iIGhouLC/Pnz8doNIr04/Pnz2M0GsVmVaPRyOnTpwHbQZ5Go1GEOPfu3SsmKrdu3cJoNBIXF4ckSRw5cgSj0cjZs2d56aWX7GjK/z98+HDy8/PtaPz+++8YjUbS0tKEHA8fPgzYwqBGo1GEoWQaYMsENBqN4mDXs2fPYjQaxWZWuS5gS0gxGo0iXdloNHLkyBHAdrKD0WgUSvPw4cOCRlpaGkajURx7dObMGYxGo9icajQahRG/dOkSRqNRJGYYjUYx4YqLi8NoNIqDiA8dOiSSB1JTUzEajVy5cgWwbayVacj9ety4cbi4uPDMM8+g0WioXr26kKu8ITc6OvpfOT73798v+nVycjJGo1EkjZw8eVLQeFLHpxxGVob+Cvvz9PRUQ38PA2W6pOyK/ttDf4mJiVy6dImrV6+SlJRETEwMly5dEsrzaUNWVhZJSUlcv36dS5cukZCQQFJSEpcuXbLLonpcUIZvcnJyiIqKIikpidjYWC5dukR8fDxJSUnCGKh4OJjNZi5dukRcXBxJSUlERUVx6dIlkpKSHiqcq+KfgzL0p0yqKFasGMuXLyclJUVNpngYOCZTyFlayiwjuPuiQOV+B+U393oG9rv5C6Nxr2cPQv9+NO4XI3f87p/i4370C8v0Kwp/VVs9yAB7XDT+yj73pNF4EPxbx+fTQqOoZ/K35cuXFx6xRqPhhRdeoF+/fsJzzM3NVT2qh4HSUD0NFv5RoTRU9/tTvv+kwrGufyc/D0P7aZHnP41/sj1VPD7IhqtKlSrCSHl7e4vQt/xc3fD7kPivGCoVKlSo+Ksh6055vVY+EQb+2JQvSZJqqB4WqqFSoUKFiscD2WOaOHGiuONNeVi2/N+nRd+qhkqFChUq/uWQDx8G9fT0P4WnTXAqVKhQ8aRC1qfKk2KU64lPm75VDZUKFSpU/MfwtOlb1VCpUKFCxX8MT5u+VQ2VChUqVPzH8LTpW9VQqVChQsV/DE+bvlUNlQoVKlT8x/C06VvVUKlQoULFfwxPm779Vxkq5T4Bx8sQ5Wf5+fnidlv5AjL5T76s0fGIGPkSM+WffFdUYUfIONZD/t5sNtttupPr4FjWvb53vOpdrp98gK+y7jK9ovhwLO9+vDjKS/6TLxAsrA5Akd851qWweji2w/34BNtmRiVNR5kX1p7yxYBF9Qvl9/eD8pw3xz6oPMutqDo+CA+FvSP3X0e53e9d+WK+wspXXsIH3LcdrVar6LOOPMv9pCieZXk5jger1XrPNnCsr+M4dZSFTOd+795v7DmOXfmZxWIR/fl+40bJQ2HtLUnSA8m8MLncC6qhekT8lYJ72PPI/sylb8qOfq/6F1Un5e9Ffe94SeCfhbK8P1tuUUrk78JfSe9BZFTUO4UZ3/uV8ah1KMzg3O/d+9Xhz8r1Yevwd1y8eC/8XWMP/pnzElVD9Yh43B7V4sWL8fX15ccffwQQ98N8+umnjBs3DpPJxNy5c/H29qZp06Z4enrSu3dvcemfXFZSUhJjxozBy8uLZs2a4erqiqurKyNHjrR7r7B6AGzatInu3bvj6elJp06dWLBggbgrJj8/n2nTpjF9+nSAQmeh33//PQEBAbRo0YIuXbqIy9tkpKenM3DgQHF5pHKWOmbMGHHZ2s2bNxk1ahSenp40a9YMnU5HUFAQq1atsqPrWH+5rDt37jBu3Li75ODh4cHmzZsZNGiQuIRPOTMF+OSTT2jbtq34xtXVldatW6PT6WjatCmurq506tRJ3NOjVFJyOffjc+HCheKbhIQEJk+eTKtWrfD19WXixIni3qWi2rN58+YcOXKEjIwM3n33XfG8ZcuWDBs2jIiIiCLb27Gu8ix769at+Pr6cuzYMfFcrnNycjIzZsygdevW+Pj4MG7cOHHHFdjucpo5cyZt2rShbdu2jB07lsjISOCPcZGSkkJISAitW7fG09OTwYMHc/78eTsZyu9eunSJd955h5YtW9KyZUvefvtt0ddPnz6Nn58f0dHRdu134cIFfH19Wbt2raiXj4+PkJmnpydt2rShadOmQpYnTpxg2bJlDB48GLD1cbkOFy5cYOjQobRo0YJWrVoREhIiTvGWJImDBw/SoUMHJk2aJL6V69e7d29x55OjXpD/feLECfR6Pc2bN6dp06a0a9eODz/8kIyMDOEhKdtF2faurq6MGzeOzMxM0Y47duygR48eeHh40LFjR1atWmXnsU6ePJmQkBBRB7ndFy1axJgxY4SH9/777+Pt7S1kJPf59evXCx7S0tKYNWsWbdu2pW3btowaNYrLly+TmJho9423tzfe3t6i7i1atOD69ev37ZuOUA3VI+JxCE55jtVbb72FRqOhXbt25OTkiE40ePBg3NzcMJvN+Pj44ObmRnh4OEeOHGH06NFUrFiRU6dOifrcvHkTJycnBgwYQHh4OMeOHSM8PFycn+U4U5b/rFYrffv2pWHDhqxevZpjx46xa9cuOnbsSLdu3cjLy0OSJNq0aYOvry+A+E0u86233sLFxYU1a9Zw4sQJ1q9fT4MGDXjrrbfEpWlJSUk4OTkxYcIEwH4nepMmTejZsydguxiuSpUqvP3224SHh3Po0CHWrVtH69at8fDwEIq8KCWQmJhInTp1ePPNNwkPD+fo0aOEhYVx6tQpkpKS6NevH02aNBFXDsgzz7y8PCpXrsywYcPs5FezZk30ej3h4eGEh4dz7ty5QsOpSsX+IHxGRUXh7u5Oz549OXjwIIcOHWLZsmW88cYbgO3CwsLaMywsjNTUVJKTk6ldu7bgc//+/QQGBlKnTh1iY2PvCmsW1gdlBdW9e3c0Gg3Dhg0jNzdXfCvf2Nq1a1dCQ0M5dOgQX375peAhISGB1q1b07lzZ/bt28fhw4f5+uuvCQwMJCsrC4DIyEgaNGhAjx492LdvH8eOHSM4OJhq1aqxbt06ISOwTXacnJwYP348Bw4c4Pjx40yZMgWtVsvx48c5duwYGo1GXGIoy3XmzJloNBo6duxIfHw8kiRx+vRpTp48SXh4OAMHDqRixYqEhoYSHh7OyZMnSUtLY9CgQdSuXRtAXFL43Xff8dJLLzF58mSOHTtGaGgob7zxBg0aNBC30cqXicp1keW8a9cuKlSoIC6ddLynTu4327dvR6PRsHHjRsLDw9m4cSPOzs4MGDAA+GMiOH/+fIoVK0ZYWBjh4eGcOnWK8PBwLl++LN4ZM2YMtWvXZsWKFZw8eZLNmzfTvHlzevToIS6p1Ol0dOjQQdRBlvebb76Jq6urCHV6eXnRsmVLMW7kPi/fk5aUlISvry+vvfaauMBzzZo1BAYGcvv2bcLDwzlx4gTh4eF4eHjg4eFhV3f55mXVUP0NeJweldVqZfjw4dSrV49mzZqxfPly8c6YMWNo164dFouFLl26CAUmo1atWkIZgk1Ba7VaFi9e/EB1kBXrkiVLqFChgrilVUZubi6rVq0SCqdr165069YN+EP5SpLEihUrKFmypDiWX8aJEycoW7YsX3zxBWDzdBo1aiRmdspYfuvWrcUgjYuLw9nZmWXLltmVl5KSgqurK35+fmLWWZihuH37No0aNWL27NmF8h0WFka5cuXErahyjH7Tpk2UK1furssLvb29mTJlyv3EKepyPz779+8PwPr16ylRosRdcpe9tfu1Z2F83rlzh9KlSwuPsah+Ka8zgO023caNGzN58mS0Wi1RUVF2iveZZ54RN88qaUuSxP79+9FoNHe1fUpKClarlZycHDp06EDr1q2FcpQRHBxM5cqVBb2IiAiqVavG/Pnz7/JU9+7dK5Rd6dKlhccCtolNixYtGDt2LG5ubmzevPkufpcsWYKrq+tdYbrRo0fTtGlTQScyMpIqVaoQEhJi17cyMjLw8fGhXbt2SJLEhg0bqFmzJp6enmJMyPWsW7euuPHXUf6y4dq9ezcvvPCCuJkZYOXKlbz44otcuXJF0P7444/F9euFYcOGDTz33HOiL8u4cOEClStXZsGCBUiShJ+fH4GBgaIOspEbMmQIbdq0Eet17dq146233iqS3vHjx9FoNMLDlZGamnqX8enVqxe9e/cusqwHhWqoHhGPO/TXu3dvevbsyWeffYZWqxWNPmrUKHx8fLBYLHTq1MnOUOXn51O5cmUmTpwofktMTKRevXosWbLkgejLnkS9evUYOnSo4KOw2LbFYsHf35+AgADA5lHJg87V1RV/f39Rrjw7AwgMDKRJkyZIkkRaWhqvvvoqM2bMAOwVeMuWLcUAiY2NpU6dOixevBir1Sq8N4AtW7ZQpkwZcb25csaqNFT169dnzpw5hfKekZGBh4cHI0aMELwAdO7c2W7WmZ+fj9VqxcPDg3fffVd4IMpL4wpbz7lz5w7169cvkk/ZUB0+fJjnn3+eBQsWEB0dLQyUzMv92rMwPuPj43nmmWeEoSps/URue1l2kyZNwsvLi9zcXOrXr8/ChQuFR3XmzBlKly7NzJkzuXbtmggFy2VfuHCBF154gSlTpnDt2jURHpOfnz9/nmeffVaEgZWJESkpKZQrV47g4GDA5hVVq1aNGzduAPYX+cnYt28fZcqU4ddffxW/bdy4kWrVqpGWlkZgYCB9+vQR38ptOHfuXBo0aEBqaqr4XR5jjRs3FmV9+OGHlCtXTlwXr0xC2L59O8888wxnzpxhz549VKlShb1791KhQgVxbf2ePXuoU6fOAxmq559/XlxZD7B06VLKli1rN1H46KOPqFKlyt2N///b0dfXl5YtW4rf5OQLgGHDhlGvXj0yMzPtJplKQzVo0CBatWolZNK2bVsxYSwMly9fply5cowfP17c9i1DHhtyqLtHjx4EBgaKtihq3NwPqqF6RDxuQ9WrVy969OhBWloaNWrU4OOPPwZgxIgRtG3bFrPZjF6vp0WLFmzfvp0ffviBAQMG0LRpUyIiIkRZCQkJNGrUiD59+oj3tm3bRkJCgh1N+EOBpaWlUbZsWZYvXy6MjGNYEBBenWyocnNzRdioUqVKYgYqvy97KbNmzaJMmTLk5eWRnp5up8CVWUBKQxUXF0edOnX46KOPxHtyvX777TeKFy8uZs3Ka8blspKSkmjWrBk9e/a0k8P27dtFKGTx4sXUrVuXmzdvIkkSN27coGzZsmzatEnIQW7TFi1aMG7cuLvarqg2vXPnDg0aNCiST1kR5Ofns3z5curWrUujRo3o3LkzISEhIrR58+bNQttz+/btmEwmkpOT7fhcv349/v7++Pj4kJycfM/QnyzP5ORkGjRoQEhICGazmZEjR9K0aVMhV6vVyurVq3nllVdo0KABfn5+TJs2TXiBkiSxbt06XFxcqF+/Pp06dWLy5MlijWrr1q2UKlWK06dPCy9Yngjl5ubSuHFjunfvjiRJvPHGG7Rs2ZLs7Oy7+qJsLPbt20fp0qWFhydPoLp27YrFYuHzzz+nZs2aXL161W6tZ968eTRs2JD09HS7vjJq1CgaNWokeBk8eDBNmjQhLS3NzqBLksS5c+d47rnn2LRpEwcOHKBChQqkpKQwbNgwvLy8APjpp5+oXbu28DiKMlS7du3ihRdeYNmyZWzbto3ly5fTsGFD4YXL/H788ceUK1eOrVu3irbfunUrFy5cQJIk6tSpw6hRo+zGrDz2PvvsM0qWLEl8fDzdunUThkrO9AN7Q2U2m+nYsSOtWrVi27Ztor9t27bNbhK1YcMGtFotr776Kh07dmTixIlcvHhRyFDmMTAwkJ49e97XOMm/F5YJqvx/1VA9JB63oerTpw/t27cHICQkBBcXF7Kyspg0aRJt2rQhLy+PoKAgKlWqxGuvvUarVq149tlnhSKXB118fDzu7u44Ozvz2muv4ePjg6+vLydPnrSjqfwmMTGRcuXKsXLlSjsvS35XHqT5+fl2HpW8jpGVlUWlSpVEuEa5SG+1Wlm0aBGlSpUiNzeXjIyMQj0NSZLw9vYu0lApU/EvXrxIqVKl2LhxoxiUhfGk0+moVauWnRw6duxIXFwcAL/++isvvfQSa9asEXKvUaMGOTk5Qg5yeQ9rqG7fvm1nqBz5HDhwoJCR/Pzw4cMsXLgQZ2dnXFxcSExM5ObNm4W2p5+fH6mpqSQlJdnx2aJFC5555hm2bNlSZD3ltpX765YtW+wUeGZmJtWqVSMsLMxO6eTn53P06FEWL17Mq6++KtbBlFl7x48fZ8mSJTRs2BAnJyfi4+P54YcfKFeunFhTUoZrc3NzadGihfDGAwMD8fHxEWtFyv4kyzA0NFQYKjlUV6tWLZGYAbZ1wJUrV9r1iQcxVAD9+/fH09OTjIwM8Z5c5wsXLvD888+zfv16Dh48SPny5UlLSyM6Opr//e9/HDp0iLCwMJycnO7rUe3cuZP//e9/eHl50b59e+rWrYtWqyUhIQFJkoRXtHTpUkqUKIGvry++vr506NABX19fvvrqK8AW/p84caLdmrdsqFauXEmpUqWIi4uje/fuYkKg9KgGDx5Mq1athCcWEBBA1apVad++vQh1+vr6igQdJT8nTpxg6dKluLq68tJLL4nJi/zOgxoqR6jXfDwmPG5D1bdvXzp06CBm9nXr1mXFihVMmTJFeFQdO3akT58+4vuHWFSWAAAgAElEQVRvvvmGsmXLcurUKTsFXbdu3bvWdoqiL+9XqVKlCjNnzrTLBlLOYuFujyovL0/wXKtWLYYOHWo3C5bDaSNHjqRGjRoUFBQIQzVx4kS7vWNWqxV3d3ehwOXQn9KjkveUHT9+nJIlS3Lo0CFRLxnK0N+rr77KokWLCuVdDk3KgzcvL4+mTZva3SyqDDs9jKGSJEmE/oriU84yk6EMX964cYPSpUvz2WefkZmZSe3atYtsz8L4nDlzJlWrVuXGjRt3TTqUcpLbaOjQoZQsWZLRo0fzzjvvMG7cODQaDUOGDLH7Rinn5ORkXnzxRWbOnCn4Vj6/c+cOFSpUYP78+YSHh6PRaDAajWImL4eBsrOzcXJyEn1n5MiR1K9fn9u3b9tl4Cm9271794rQn9VqZcmSJWg0GgYNGsTo0aN59913KVeuHC1btrSr070MlRz6kySJiRMn4uTkREJCgqAr70s6fPgwxYoVIzQ0lH379vHiiy+KUOfo0aNp3749oaGh1KpV674elRz6k41yamoqLVq04I033hB9HWyhv6pVqxba/pIk2SXnKNtVkiRmzJhB1apVSUlJoXv37vj5+dntt8rPz6dPnz60bt1aGOQ2bdqIZYB7QTlBTE9Pp1q1aowbN+5PeVRLly4VE0lluFy9OPER8Vd4VJ06dRLPFixYQJMmTejWrRudO3fGZDLRuXNn9Ho9JpNJDDY520rGrVu3cHFxYdasWZhMJjIzM+0MSmEKC6BPnz40adJE/K50wS9evEheXh5WqxV/f3/8/f0xm81kZWWRl5eH2Wxm6NChvPzyy2Jwye/n5ORQr149u7UgLy8v+vbtK+Qn06lRo4bwQGSP6sMPP8RsNpOdnS3qNnjwYOrVq0d6eroIIznyk5ycTMOGDZk0aRKZmZncuXOHzMxMMjMz7WaTa9asoU6dOixbtowaNWoQHh5uF/J8VI8qNzcXnU5XJJ/ymkxsbCzX/3+6bk5OjphFV61aleDgYLKzs6lbty4hISFkZmaSkpJCZmYmGRkZFBQUcPv2bRo2bMiUKVMwmUzk5uZiMpmoXbs277zzDnB31plyMnHt2jXq1avHyJEjef/995k+fTrBwcGMGTOGGjVqkJubS0JCAlFRUYIveQJSu3Zt3n33XdLS0kSYLzc3VyjeV155hdGjR5OZmYmTk5OQn9lsFvIPDQ2lRIkS/Pzzz4DNyyhdujSHDx8G7ENUKSkpxMXFcfToUZ5//nkxw2/evDlvvvmmqH9ISAjvv/8+FSpU4Pz586JN7mWolH3faDRSsmRJUae8vDzRrydPnkzNmjVJS0tj69atVKxYkVu3bmG1WomIiKBBgwYEBQXh7u4uJlL3Cv3JSSGyTI1GI6VLl+bgwYPi/SVLllCpUiUyMjJEH87MzCQrKwtJkpg2bRoVK1YUHqA83i0WC+7u7rz55psUFBQwZMgQXF1dxTsyTR8fH5FkYTab8fX1JSgo6K5xI7fD7du37dpbHpuNGzemX79+dpOWBzVUyqvoPT097dZcldtH1KvoHxKP21D169dPGJzc3FzS09Nxd3enbNmydO7cGYvFQufOnUWHys7Oxmq1snPnTsqUKSNSZm/duoVWq2Xu3LmA/aynMPry3/Xr16lVqxa9evUSWUgWi4V58+bRqVMnkfXXpUsXgoKC7iorLS2N2rVr0717d7G4mpKSQs+ePalbt67Y8yJJEl9++SWlSpVi9+7d4vuQkBBKly4t0ujj4+OpXbu2SAiQeZs0aRLPP/88mzZtEnUsLJwph97mz59fKO9yW928eRNvb28qVKhA586dxaCTjZRcnqenJ++9956d7AqDMtX9XnzKA33Tpk04OTkJpQYwZ84cNBoN4eHhpKSkUK9ePT755JNC6SUnJ9OoUSNh4OXU308++YRKlSqJMJKjMZfr/+WXX1KnTp1Cy65UqRI//fQThw4d4qWXXmLv3r3i2ccffyzqeOLECapWrcquXbvE82XLlqHRaNixYwcA69ato0yZMnae4dGjR6levTqDBw8WXqfJZOLtt9+mVq1aduWFhobStm1bdu/ezdmzZylZsiSXLl3i119/pWzZssTGxt5V/+bNm9tlas6bN49GjRrdZahGjx5tp8DliZeTk5NdJt3y5ctFiBxsKexVq1YlKSlJeBELFizgmWeeeeCsvzJlyohJgJw05OPjw5tvvinaaMmSJffM+pMzTNu3b09MTAxgm/QMGTKE6tWri6STw4cPU7x4cVasWCG+XbduHcWLF+enn34SnpiPjw+DBg0qkt7JkyepUqWKaFuAr776Co1GI9aNZR579uxJUFDQfQ2V3BZVq1YVKf89evQQoUR5nKse1UNCaaiqV69+18JvYfFVx2eywrBarQQFBeHj4yPWfMCWqirPMCwWCz4+PnTp0kUsQsuhkSZNmogYv7yPSg7JyPuXCqOvXI8CWzbPwIEDad68OVqtlubNm+Pn58fOnTtF0kSPHj149tlnqVevHnXq1KFevXo4Ozuza9cuoqOjeeutt3B1dcXFxYWmTZvSv39/MfNV7tlZsmQJTZo0EQvw3t7eGI1GId/o6Gjq169PuXLleOWVV9BqtXh6etKnTx8x23aUt7INEhIScHNzo0yZMqKudevWxdnZmVWrVtmFR6ZMmYJGo2Ht2rXiezk0JQ+Gxo0bM3LkSDtvqzC5ynWQ1wnuxackScL4tm7dmoYNG9KoUSO8vb3F+ltsbCyurq6ULVvWjo86deqwfv16ERqcNGmS4MlqtZKenk7lypUZP3683Tqe0mhlZ2fTtGlTkT6clZVl5+10794dLy8vsrOzmTJlCq1ataJRo0Y0btwYLy8vsbE2LS1NbORt3LgxjRs3pkWLFqxZs4b8/Hzh9W7dupV27dpRv359tFotXl5ezJs3TyS3yO9lZ2fz8ccf06pVK7RarZDJjBkzyMzMZN++fWg0GiIjIxkyZIjYD5ebmyu87/z8fJH6LidmzJo1C2dnZ5FRK7f1kCFDcHFxsZNfVlYWCxYsoEWLFmi1WurXr0/79u354YcfRD3XrVtH2bJlSUxMFG1/9epV6tatK4y4zJeyr8jrLzt37kSj0YjJmeyFbNiwgVKlSnHkyBEkSWLhwoVoNBqcnZ1xdnbmlVdewdnZmaCgILGNIiYmhmHDhtG8eXNeffVVnJycaNu27V2bjjdu3Ii7u7tIhGjWrBmrV68Wz7OysvDz86NEiRKivzk7O1O3bl3mzZuHJElkZmbywQcf2LW3h4cHX331ld16tiRJIgKj1HWF6USZfvny5Xn22WcpVqwYGo2G6tWriwMP5PpVr17djqcnEU+cocrKysLJyQm4O8TyMMjMzCx0A2lKSgppaWmAzejI7r0S8iCVoTx/TFlfZbmO53YpZ9wJCQnEx8eTkpIiwgPKeiYlJZGYmMiNGzeIjo4WsXy53LS0NG7evGm3P8SRL7DFtZOSkoiPjxfKSgmLxUJiYiLR0dEkJiaSkZFx1z4cJR+ycXEsPzExkdjYWFGOo5eZn59vl3Jd2KxPznB0RFEbjpXIycnhxo0bxMbG2p39p8Tt27e5deuWCLUooeQjJiZG8CErA/kkA8dy09LSRN9xrJssq9zcXLuUYUcZKEOueXl5xMfHExsbe1f/AlvfiImJISkpqdDnchm3b98mNjbWLo29KJknJycTExNDamqq+N1kMonJXFpaWqF9B2z9R0kjJyfH7l3lhFFZvmMdrl+/btd2Ssh7xZRlyuFPx3Hl2DeUfDgiOTlZfJuXlyfaPyEhgejoaOLi4khPT7+LRnx8PHFxcUyfPp0qVaqIBBZHuSQkJBATE2PXvo7Pb9y4YdfnHHWByWTi5s2bxMbG3jUuZRQ2Zu+FF198UXhUzzzzDBqNhmLFilGhQgU2btxIXl6e6lE9DOROnpOTQ5UqVbh69SoFBQWkpKQQEREhDMrly5dFmCc7O5uIiAgxeK5fv26XWh4VFSX2j9y8eVPMtAAiIiJEeOPOnTtERESI41OuXr3K1atXBY0rV66IgRcdHS08GrCFz2SjlpeXx61bt8SzixcvitBBdnY2V69eFZ3z0qVLdjO/a9euiU5+8+ZNLl++LJTf1atXSUlJEfQuXrwoFFdERITYn5KRkcG1a9eEAoiMjBTH8mRlZREVFSVoxMfHCx5NJhMRERFCCefk5NjxcevWLfHvzMxMrl27Jjp1dHS0SFvOyMggIiJChIKuXbsmZCXTkNP6b926xe+//y6MQ1RUlGjj/Px8O/qxsbH8/vvvgsaVK1eEzGNiYkSb5+XlERERQWJiImBLqZdlI695yG2enp7OtWvXRF+5du2aeDcnJ4fLly8LeURFRd3V5rL8s7Ky7Op65coVMaFITEwkIiJC1PX3338nJiYGSZJIT0/nypUroj8o+25OTg6RkZGizyUmJhIVFSUW52U+JMmWZCLXW25zOfSVmppq1x7R0dHi3fz8fC5duiTCygkJCWJcyf0qLi5OeNMRERF2fU7uO1lZWXeNT5m+cnzK4XB5m4As1xs3biBJUqHjU6aRkZHB1atXRd9NTk4WbSy3h9zn4+PjBR8Wi4WIiAjhJd26dYuIiAjRd69duyaeyeNTphEZGSnCZPn5+fz222906NCBLl26cP78eVGO2WwmKipKjM+kpCQiIiLE5E2Woywr5di5cuUKly9fFlEf5fiMi4sT/cFsNtvxIfcrOXwXEREhlgKSk5OFLgObRyUbKtlIKf/t5+enGqqHgaww8vPzKV68uAjJrV+/Hq1WK+L5Xl5eNGzYEIDw8HC0Wq2I0/fq1QutVovVaiUpKQmtViuyZoKDg9FqtVy/fh1JktBqtQQEBCBJEmvXrkWr1XLgwAEA3N3dRdbS8ePH0Wq1Ym0nKCgIrVZLRkaGOPKlYcOG7Nmzh6ZNm6LRaNi+fTtWqxWtVivSV7/++mu0Wi2HDx9GkiSaNWtGs2bNkCSJw4cP4+Liwtdff40kSXTv3h2tVosk2Y7b0Wq1TJ06FUmyZVApU261Wi2vv/66WMNxcXHhxIkTSJIte8nDwwOAAwcOoNVq+eabb5AkiYCAAEHj+vXraLVaevXqxZ49e6hfv74I3e3atUuESyXJto/ExcVFJEk0bNhQ7HcxGo1otVrWr1+PJEl06dJF0Lhy5QparZZZs2YBtnUMFxcX7ty5g9lspmLFilSqVImff/4ZPz8/NBoNc+fOZc+ePWg0Gry9vZEkid27d6PVakUor0OHDmi1WsCmJOX1REmSGDFiBFqtlvT0dPLy8tBqtQwcOBBJkvjoo49wcXERyQEuLi60adMGSZLYsWMHWq2WrVu3IkkS7dq1E3yEhoai0Wjw9fVlz5491KhRQ6wlnDp1Cq1WK7L7Fi5ciFarFfthtFot7dq1A2wp7Fqtlh07diBJtqO0ZD5++eUXtFotH330EZIkMWDAALRardg3p9VqGTFiBJIkMXfuXLRaLZcuXRL9Qc523bhxI1qtlt27dyNJtjR+mY+zZ8+i1Wr59NNPkSTbmq5Wq8VsNnPnzh20Wq1IHpk1axZarVac7qDVasX4/O6778T4lCRJjE9JkoocnwUFBXbjE7jn+Pzmm29wcXEhNDSUo0ePCiW7Z88egoOD0Wg09O7dm/T0dIKCgnBxcQFsxler1TJx4kQkSWLq1KlotVphgF1cXO4an/IxTY7j89VXX+X7778HoEePHqKtbty4YTc+J0yYIMan3ObympI8Po8fP44kSSLEJ0m200gKG5+AGJ/BwcFIksS7776LVqslKSlJ6JlevXoBtrVMrVYrwqTlypWzM0yysXruuefEv+UMSNVQPQCUob+aNWsCfy7091fjypUrtGnThqCgIPz9/fH29sbf35+goCAmTZp0z6SLJwnKENHmzZvx9vame/fuBAUF0aZNG7y9vXnjjTfsFv7/CsTExKDX62nTpg1+fn4EBQXh6+uLt7c3X3/99V11/adw5MgRgoKCCAgIwNvbm4CAAIKCgmjVqtUDnV6i4s+hb9++BAYGEhQUhLe3N+3btycoKIgBAwbcdWzW44Bjn3MM8T/pUIb+NBoNxYsXF//fqFEjPvnkE7HUohqqB4Ayhl+9enUsFovdngvl6QzKHf7KtG/He2CU9xfJKdQyHeUdRo9C40HwOGj8HXwokwPuh7+CjwcZ8EXRKIy+TKOw/iDLSqZfGB8yj4/a5o48PgiNv5KPJ23s/Fka98I/NXb+KRqO/UG5Rw3+CP0VK1aMEiVKoNFoqFChAsOHDxdhYDWZ4iGgNFRPcsxUuWAs752Q/0wmk0jHLWwx/kmE0lDk5+fb8aHkq6ikhcdFW5anI23lnpt/SpbKehYUFDyx9fy3Qpa/rJSV8lf+V3mix38dsizkrD/ZixowYIBddCQlJeWJ1rcyVEOlQoUKFf8yyIaqUqVKaDQann/+eX744QfhpcmbmJ8WfasaKhUqVKj4l0HWnSVLlmT69Ol2GZ3qyRR/AqqhUqFChYrHA1mfJiQkCO9KedametbfI0I1VCpUqFDx16Cwk1/g6dG3qqFSoUKFin8ZCjNKyiSTp03fqoZKhQoVKv5jeNr0rWqoVKhQoeI/hqdN36qGSoUKFSr+Y3ja9K1qqFSoUKHiP4anTd+qhkqFChUq/mN42vStaqhU3BfKrCHlTb0Pc0yUYxl/xRFTjkcyFZb5pOL++DvaqjBajhlqT8sxZE8jnjZ9qxoqFfeEqiRU3A/KyYHy0sj79Z0HeU81Vn8NnjZ9qxoqFfeFcnZ748YNwsLCiIyMfKiDauV3cnNziY6OFhfE/VUeVWxsrLhlWPWoHg7Kk79v3Lghbs39K2Qon5CQlpZGXFyc+Lfyxl217R4/njZ9qxqq/xCUJ4BbLBZxXYB8OnpRz3Nzc7FYLISGhuLm5kb9+vUZMWKEuLK9sI2EVqsVi8WCyWQSNABOnDiBk5MTRqMR+OPcMWVdLBaLUFj5+fl3GUS5bvJv8ve5ubnk5uaSn5+Pm5sbEyZMEPw4Xm+u5FNZ//z8fLtr3yVJElcuyNcnKGf5Sh6Vz2T+5fLudbq38vR6k8kkynOsm6NM5fFRVB2Lagvld/dqq3PnzlG6dGlxH1hubq6on7KdJEkSN1GfPn1a3CDgWD9HOcm/W61WBg0axMiRI4XsJ06cyBtvvCHkohqsx4unTd+qhkqFwP3u++nfvz/Dhg0r8rlS8RX1/PTp07i6unLw4EEAce/Yvcq7Hwq7YPO1117j/fffF/V5VCVX2HeO6yn3q8v9yrvf+/f6pijeHM90c4SjoS/s++TkZL744gsiIiLuWUf5RO7FixfTpEmTB6q/bMAlyXYTcPPmzblw4YL45saNG7i4uHDq1CkxEVHx+PC06VvVUP2HIMszLCyMtWvXcvToUWbOnMmYMWP4+eefRRucPn2ab775hiNHjjB16lTGjBnDggULqFmzJh4eHrz11lvs2rWrUIUtK0aTycS3337L6NGjCQ4O5syZM4J2o0aNOHDgAPCHwjx9+jRTp05l1KhRfP311+Tk5CBJElu2bGHbtm3AH31kw4YN7N692+63sLAwxo8fz6hRozh8+DC+vr7MmDFD1MnRawI4duwYa9asITc3Vzw7fPiw8CDkbzdv3syYMWOYMGGCuMtHXo/ZunUr77zzDhMmTODEiRPiu+joaFavXs2RI0dYtGgRQ4cOJS4uzq7OMuR/79y5k2HDhjFs2DDGjh3Ltm3b7NZ8cnJy+PLLLxk9ejQzZszg/Pnzoi47duxg7NixjB8/nl27dtm1RVpaGl988QUjRowgODhYGAS5PxQUFAgep06dysmTJwG4c+cOW7Zs4erVqwAcPXqUESNGMHToUEaPHs0333xDVlYWVquVkydP0qZNG5ycnBg8eDCjR48W16FbrVZ++uknxo4dy7hx4zh06JAd/dGjRxMUFEReXp7dpYKDBw+mf//+4t+qR/X48LTpW9VQ/YegnPlqNBoCAgJYsmQJY8eOxdnZmdWrVwOwZMkSNBoN7du35/3332fx4sWsWbOGV155hVatWjFv3jzCwsLsDJUyIzAlJYVevXrh7e3N9OnTmT59Ou+99x6JiYmcPXuWBg0aCEMlSRKhoaG88sorDB8+nNmzZ9O8eXMGDhyIxWKhZ8+edO3aFfhD8bZp00YoMEmSOHLkCPXq1WPIkCHMnDmTXr16Ub58eT766CPxnVLJyaGt4OBgmjRpwp07d8SzyZMno9Vqxb/nzJmDh4cHM2bMYNasWYwZM4bQ0FAARo4cSZMmTZg6dSrjxo2jSZMm/PTTT0iSxL59+yhdujRNmzYlJCSEefPmcevWrUI9DPnfR44cYfbs2cyaNYvg4GDc3NyYP3++4HvAgAH4+voyZ84cgoODGTt2LPHx8XzxxRc0a9aMqVOn8sEHHzB27Fh27tyJ1Wrlzp07vP7667Ru3ZoPPviA/v3707BhQw4fPkxBQQHp6ekMGzaMFi1aMHXqVEJCQhgzZgwxMTH89ttvVKxYkTVr1gC2ycTcuXOZPXs2M2fOpE2bNrz99tvk5eXx66+/0qVLF15++WVmz57NokWLuHjxImazmUmTJtGgQQMmTZrEpEmTaNSoEZs3b0aSJNLT0/Hw8ODDDz8EsAv7GgwG6tWrJ4yhqg8eH542fftUGKrCUljVbKCHhxz/X7VqFS+88AJHjx4Vz4YOHUqbNm0Am4IoUaKE8Fpk6PV64aUUBtkALF68mJdeeolffvlFPLt69SpZWVmcOXOGhg0bCkNltVpp0qQJgwcPFu+GhYVRtmxZ9u/fz7hx4xgwYADwR/sHBQXx7rvvivdbtGjBwIEDxb8PHTpEmTJlWLx4saCh7CeywV60aBEdOnQgNTVVPJs/fz5t27YV9OrVq8eCBQvE8xs3bhAXF8f27dspXrw4P/74o3g2a9YsGjRoIHj43//+x8KFC+1kVJSRKqwf//TTT3h5eXH58mUAnn32WREyBfj999/JyMjA3d2dqVOnit+Tk5PFN59++ik1atSwC9/17NkTLy8vAFauXEnFihXt+sL169dJT0/n8uXLuLu7C4/WEREREXh4eLBv3z5By8fHx+4do9FIiRIl+O6778RvS5cuxdnZGYDffvsNFxcXNm3ahCRJYm1LkiSOHz9O5cqV+fXXX4H7h1VVPDhUQ/WIKEpwhe2rUPFokA3V559/TrNmzcjOzhaJBsuWLRPrC6tWrUKr1ZKSkiISDvLy8ujQoQNjx47FYrGIcJly4iAvenfp0kV4PAUFBXYDIDw83C70l5CQwAsvvCDCQXK5np6ezJo1i7fffpu33npLeGySJNG9e3dGjx4NQEZGBuXLl2fv3r12axktWrRg5syZQNEe1cKFC/H19SUlJUXwMmfOHFq2bCnenTlzJi+//DJjxoxh586d5OXlATB8+HBatGhh10djYmIoXbo0t27dIiwsjDp16ohwYE5Ozn2TKRISEhg+fDgNGzbk5ZdfplatWpQvX54TJ04gSRKvv/46Wq2WkJAQDh8+LL6fP38+NWvWZOTIkezYsUPwJ0kSffr0ITAw0K79t2/fTqVKlcjLy2PgwIH4+fmJtlIag4sXL9K0aVM2b94MQGpqKtOmTcPV1ZWXX36ZOnXqUKZMGdasWYPVamXWrFl4eXmRlZUlPKPp06fToEEDu/BqWloazz//PNHR0Zw5cwZnZ2f27Nkj6ij3lzNnzlCtWjUOHTokEi9UPB6ohuoRcS9DpRRgbm4uCxYsoGnTpgBq530IyLL67LPP8PT0JDk5WRiZpUuXCkP11Vdf0bx5cxISEuwy0jp16sS4ceOAP5S9DKvVKgxVp06dGDRokPhdaSgcDVVcXBxly5bl6NGjSJIkym3ZsiUhISEMHTpUlCUr0W7duglDlZqaSvny5QkNDRXGDECn093TUEmSxIIFC2jfvj1paWmij82dO1cYKuX62dy5c3nttddwdnbm0KFDTJ8+ndKlS+Ps7Ey1atWoVq0a1atXp06dOpw/f57w8HAaNGjAsWPH7AxoYUZK/vPx8aFHjx6EhYURHx/Pnj17qFWrljBKVquVvXv3MmPGDDw8PGjRogW//fYbYFPqCxYsoHPnztSpU4cffvhBeJ9y9pzM448//kilSpXIycmhf//+dqFV5Vi7ePEirq6ubNy4EYDevXvTqlUr9u/fz40bNzhz5gz169dnxYoVAHzwwQd4e3uTm5srxu7s2bMpVaoUdevWpVq1alStWpUaNWpQo0YNjh07RmRkJM7Ozmzfvl0YI/nbsLAwKleuLNY31bH++KAaqkeELDjl1chyKivYhBgWFkb58uXRaDTUq1dPvKPiwSAP9GXLlqHT6ezWZj799FOaNWsG2DwqDw8PEhMTxfP8/Hy6dOnC+PHjgbsNlfK34OBg6tatK5IHwLYwbzKZOHPmjF3WX0FBAc7OzkyZMkW8GxUVRcWKFdm2bRszZ87E19dXPEtKSqJx48ZMnjxZ/NagQQORig5w/vx5KleuzKJFi4C7DZUyBNqoUSOSk5NFXbp168Zrr70G2PqWUgYAXbt2pW/fvmzfvp0mTZpw48YN8aygoICbN28CtvWmpk2bcvz4cfHsXhmEJpOJUqVKCc9Crl/JkiUJDw8nPz+fW7du2cn6lVdeYfr06aSmptp5Qv379xdt+f7771OvXj27eg4fPpzGjRsDtvXI6tWr24UGU1NTycvLIzIykubNmwtDVa1aNT7++GPx3sGDBylVqhRr164FYN68eYKujG+//ZYmTZpw5coVO55v3ryJ1WoV7fn555+LtpEnG1u2bKFmzZrcvn37rgmrij8H1VA9IpSCq169ut3Ai4yMZPLkyWg0GvFXv359QJ1lPQyUazOvvPKKUNBgCx85OTkBNqNVp04dEhISxHOLxYKnpydDhw4FECEwJWRlHB8fT9u2bencuTPr1q1j1apVTJ48mfj4eMLDw3nppUw0v9oAACAASURBVJf4+eefAVu7b9iwgZo1a/Lhhx+yadMmfH198ff3JyMjg5MnT1KtWjXmzp3Ljh07mDhxIhqNhvfee098v3XrVmrUqMG8efNYv349/fr1Q6PRMGfOHFEvZZq2/O8rV67QoEEDhg8fzs6dO1m4cCHFixdHp9MBtrDihAkTeP/999m+fTsrV66kWbNmwgAGBgYSFBTE999/z+bNm5k7dy4jRowAYN++fdSoUUOENO+1viLXzd/fHx8fHzZv3szSpUtp2LAhGo2GY8eOkZqayoABA1i6dCk//vgjCxcupGHDhmzevJmPPvqIKVOmsG3bNgwGAx4eHgQHByNJErGxsbRt25Zu3bqxadMmQkJCqF27Nlu2bMFqtZKYmEjXrl3x8fHBYDDwzTffMHHiRK5evUpkZCQ1a9YUhmjIkCG4urqybt06vv76a7y9vdFoNHz55ZcA7N27FycnJ5YvX87OnTvFZuGBAwcSEBDA+vXr2bx5Mx9++CFDhw4lJycHgL59+zJw4EC7diooKOC9994TYUk16+/xQjVUj4jCPKq4uDg+++wzqlSpgkajoXjx4hQrVkwYKqvVSlZWllAC8mZF5SxVNmSOmy7lzYfwx0ZLuaHkDY1gUyLyhlglDbnOhdGQeSmMhpL+30mjoKCA7Oxs8vPzMRqNTJo0SZzcYLVa2b59u/CWjEYj48ePJy0tTdDPy8tj/vz5GAwGu3Idachp5SkpKQQHB9O2bVv69+9PaGgo+fn5REREMGnSJM6fP28n8y1bttCjRw86derEtGnTRIYcwObNm+nWrRsBAQF8++23zJ49m1WrVgn6ANu2bSMgIAAfHx++//57Zs2axXfffSfkIfMhKzxZ3uHh4QwcOJB27dqxYMECvvvuO4KDg4WM4+LimDJlCr6+vgQFBYky5XW6pUuX8tprr9G1a1dCQkKIiorCYrEQERHB+PHjuXDhggh/OspK5l+uz40bN5gwYQK+vr7079+fb7/9lmnTpnHu3DksFgvnz5/nnXfewcfHh169erF//34Arl27xqxZs+jcuTP+/v6sXLlS9COLxUJsbCyTJ0+mTZs29OzZU3yXnZ2N1WolMzOT+fPni3J/+uknCgoKuHbtGlOmTOH48eOYTCYyMjKYO3curVu3JigoiLVr1xISEiLeB1ixYgXt2rXDz8+Pffv2YTKZyM7OZtWqVfj5+fHaa68xdepUrl27Rl5eHhaLhZ07d9KsWTN+//13MXaTkpJo2LAhW7dupaCggKysrH/9+CyKhky/MBrKfv2gNOQ+ZzabSUlJoU6dOuL5k4onzlBlZ2dTrVo19u3bJ2ZsxYoV49lnn7XzqFxcXP7hGqtQhv8KCwU+KO610fh+m5AfBPKpDTL+TF2VeJgZfmHJHDL+ivD145Db30UzLy+P/v3789VXX4nftmzZQs+ePdVMv78IyrbSaGxm4EmW9RNnqCwWCyVKlOCFF15Ao9FQsmRJ4UXJRkuj0eDu7k5MTAwBAQFs2LABsO2B0ev1Yi+PXq8XYZply5ah1+vFGoJer2fMmDGAbaOlXq/n1KlTgG3ROCgoCLCtd+j1epH5NHHiRPR6PWBLA9br9SxZsgSwhcz0er1Y19Dr9SL5YNu2bej1es6ePQvAm2++yZtvvgnA2bNn0ev1Ig143LhxgkZiYiJ6vZ5PP/0UsK0p6PV6EbbT6/VMnDgRsHkeer1epIUHBQXRu3dvAE6dOoVer2fnzp0UFBQwYsQIQePmzZv4+/uL9Qd5UT4lJQWr1Yper2fy5MlYLBa+++47unXrJuiPGzdOpKzHx8czatQoDhw4gNVq5e2336ZTp06YTCauX7+OXq9n+fLlmM1m5s2bh16vJz09HYvFgr+/PxMmTMBkMrFmzRoCAgKIjIxEkiT8/f3p1asXJpOJQ4cO0blzZ7Gpdfjw4ej1evLz87l8+TJ+fn6sWLECs9nM7NmzRSgOYMyYMWIz7/79+wkKCiIyMhKz2Yyfnx/9+/fHYrGwb98+9Ho9+/fvx2q1MmDAAPz8/DCZTFy+fBm9Xo/BYMBqtRIcHIyfnx9paWmkp6cTEBDArFmzsFqtfPnllwQEBIgNs++8844IR0ZFRTFmzBiio6MB2/aAgIAAzGYzFy5cwM/Pj9WrV2M2m5kxYwZ6vZ7c3FxSUlLw8/MjJCSE/Px8Vq5cSUBAAFFRUZhMJvz8/BgyZAiSJGE0GtHr9Rw5cgSz2UyvXr3o3Lkz+fn5REZGotfrWb9+PVarlUmTJtGpUyeys7PF2Jk/fz5ms5nly5ej1+uJiYnBbDbTqVMnhg4disViYceOHXTt2pWTJ08iSRK9evXC398fk8nEL7/8gl6vZ8OGDVgsFsaNGyfkePv2bbp16yZS/4cPH07JkiXFumapUqVo27YtkiSxY8cOunXr9p8Zn3JfVY5PvV7PsmXLAFvoXq/X3zU+wbYZXq/Xi5T+wMBA+vXrB9iOL9Pr9ezevRtJkhg9ejT+/v4iDP9PTG4eFE+coTKZTJQpU0bE5x09KfnP1dWV1NRUVq5cKXbo79q1C4PBgCRJ5OTkYDAYxKL98ePHMRgMpKenA7a9Qtu3bwds2U0Gg4HY2FgAvvvuOxGXj4+Px2AwiM61c+dODAYDYAtTGgwGkZV19OhRDAYDmZmZgsaOHTsA+PXXXzEYDGJRe926daxbtw6w7c0xGAyic+3YsUPQyMzMxGAwiH0uhw8fxmAwiINCDQaD6Ny//PILBoNBGOO1a9eK/SuxsbEYDAYuXrwI2FKUZRrp6ekYDAax8H/w4EEMBoMI4xkMBnESxdmzZ1m9ejWdO3fGw8NDtIenp6cI0coTh02bNgkaaWlpGAwGka69f/9+DAYDeXl5FBQUYDAYxL6tc+fOYTAYhEIxGAyizGvXrmEwGMQ+oc2bNwsaKSkpGAwGwsLCsFqt/Pzzz6KvNG/eXNTVw8OD6tWrM2XKFJKTkwV9OWng6tWrGAwGoqKi7uLj9u3bGAwGoTT37t2LwWDAYrFgsVgwGAzi9IpTp06xevVqbt++za1bt+zoy0lBFSpUYPDgwaxcuVL03eTkZAwGg8h2+/nnnzEYDCKsYzAYxKbjsLAwDAaDSLE3GAxCaV++fBmDwcC1a9cAmxKT+UhMTMRgMHDu3DkAdu/ejcFgoKCggLy8PAwGg8jMPHHiBAaDgbS0NEFj69atgG392GAwcP36dQDWr18vNggnJCRgMBiKHJ+rV68Wqef/93//x7Zt28jIyABshkPechAREcHq1avV8Xmf8Qk2w20wGMT68po1a1i/fj1g2x9nMBjEBHDr1q2sWLFCGGs19PcAUK5RVa9encTEREaNGnWXgZI9KuXpASr+HijDV7/++isHDx4kMjKSixcvcujQIU6ePMnVq1efiExM5d6mw4cPc+jQISIjI/nll184ePCgSOtWvvtXIi8vj0uXLvHbb79x8OBBcQJ9WFiYMBZ/V11UqFB6TyVKlADU0N8DobBkivz8fH755RexVqXRaHjmmWcoVqwY9evXR5IkcnNz7TKFlCct5+fn251npjzdWvlM3gNU1IndymfKTZGPQkP57O+k4cjjg9JwfCaX8yD4szQelQ/ls3tBuYn8z9B4UD7uBaVc/wyNP9uv/46xo47Pv3583o+GnO6fnp7Oyy+/LMp9UvHEGSo5PV2590WSJDZt2kStWrWEwWrUqBGgpqf/nVBuTpUz2Qr7U7bbf72eShr/dF1UqJChpqc/IoryqJSz3qysLDp27MiLL75IlSpVAHXDrwoVKlQ8LFRD9YgoSnDy78pZ588//8zw4cOBJzuuqkKFChVPIlRD9Yi4l+CUYRHVg1KhQoWKPwfVUD0iHkRwygVC5c5wFSpUqFDx4FAN1SPiaROcChUqVDyteNr0rWqoVKhQoeI/hqdN36qGSoUKFSr+Y3ja9K1qqFSoUKHiP4anTd+qhkqFChUq/mN42vStaqhUqFCh4j+Gp03fqobqb4By07Ly8j4Z8u/yDafyRYV5eXniwjTHI3by8/PFO8p35bPCCkvbV9ZDvphNro9yc7V8wZqyLOUJIYV970hX3kLgWG/HspV8FFWfe/Eil6csQ76Qr7A6OLaFowwdy1Get6asx8PyKZ/JpuTR8Uy2wujLbS+faq6Uk/L7+23TUL6n7IOOf/eqo+PzwurwoO8UVZ7Mr7xnUj4iTfmd8oJUpewc21Mpw6LaW24j5fN78f9vwdOmb1VD9Q/hYTv9nxkkykF+L5k+yH009/r+cbfXv0lJFCWbP8uXss0epCzHCZISRZ3yojQI9yuzqHeUEw/5mwcpzxH/xJ1J95s0PY142vStaqj+Bsh8XLx4kWHDhjFt2jQ7JRwTE8PYsWM5f/48ly5dYtCgQXTo0IF27drx+uuvs3r1ajGDlAf37t276dWrF76+vrRr1w5fX186d+7M6dOn7WgWVo/k5GTmzp2LXq+nS5cuTJgwwe6qif/7v/9jwIAB4k4b5WnLAElJScyePRt/f3/8/f354IMPxEVx8skh27dv59133xX38sj1PnnyJKNHjxZ3JP0/9s47LKqj++ObKDakiCCIuyCIvQASu8Yaa4o1Yse6UWOJLW80alxjryAaW6JGo8aGJXaNLSoWbNgbiBUpAtJh7+f3B78Z7wK2tDe82e/z7AO7994pZ2bOuafMnK1bt/Lpp5/SuHFjPvjgAz799FMMBgPh4eFAzjdwAcGw9u7dS5cuXSQNBN2mTZvGqlWrGDJkiGyD6IOiZOU4Gj58OB988AGNGzeW9OvcuTPNmjWT5Yi8S9k1KtGf1/Uz7P/zNAHs27cPPz8/2rRpQ79+/di3b5+kqXo8GzduTLNmzWjcuLFMkHjgwAF8fX1p0qQJzZo1o1u3bmzZskWOzesYuFqT7NWrF2PHjjUZW3H90KFD9OnTh9atW9O7d2927txpMpeOHj1Kv379aN26NX5+fmzbts3kVG9xT//+/WnRogWdO3eWeb5Eferj0DZt2kSPHj1o1aoVPXv2ZM2aNfKe6dOny2Se6enpsvyvv/6aXr16SZpv2rSJJk2a0Lx5c5o2bUrnzp1p3bo1zZo1o0mTJowfP55r164xbNgwWrZsSdOmTeV86dChA2FhYdy/f5/hw4fTqlUrmjVrxkcffcSgQYNkUkH1nPtfEFZ5jd+aBdXfAGG+2L17NxYWFmg0GpkEDbIyiFpZWREUFMSvv/6KRqMhMDCQLVu24O/vj6urK1988YVJWZMmTUKj0bBlyxb52bZtm0w2mN1sJ547cuQIlStXplu3bqxevZpNmzbxxRdfUKVKFZlEbsOGDWg0Gq5evQpkjYN4/uTJk1SuXJkuXbqwfv161q5dS5cuXahSpQqnTp2S4zhu3DhsbGyIiooCXgiwlStXUrhwYU6ePAnAl19+KfuxadMmVq9ezWeffYa7u7tMwJddSMALgTB9+nQ0Gg0bN26UdNi4cSNnz55lz549aDQa9u/fL5m5ONHk22+/xdbWluXLl8vnhg0bJmkfFBTExo0bZXbe7G0Q/Rk7duwr+xkcHAxkZX4tU6YM06ZNY+PGjaxevZpOnTqxbds2ACZMmGAynkFBQWzZsoXjx49jNBqZOXMmGo2GDRs2EBQUxOTJk3FyciIgIECO0csYqOi7oiicOHECjUaDvb09J0+elCY2RVFYsmQJ7u7uGAwGNmzYwJo1a/D19ZWCZtmyZbi5uTFhwgQ2btzITz/9RNeuXWXyP4ApU6bg5ubGpEmTZGK+6tWr06NHDxITEyUdU1JS6NKlC9WrVycgIICNGzeyaNEifHx8GD58OBkZGdSuXZsmTZoAyHQ+9+7dk8lU169fj6Io3Lhxg82bNxMUFMSqVavQaDT079+foKAgNmzYwMmTJzlx4gTvvPMOY8aMkXNty5YtbN++nfj4eM6fP0/+/PkZPnw4QUFBrFu3jmnTpuHp6Ymvry/Pnj0zeVnL68hr/NYsqP4GCKZ64MABypcvT7Vq1WjVqpVkLhcuXKBMmTLs3r2b48ePU7hwYZmxFWDWrFk4ODgQHh4u6TRr1iy0Wu0b1S/qefToEVWqVGHAgAEkJiaaXP/ll1/YsGEDkJUl1draWma4FdpfVFQU1atXp127diQlJcnnExMTadOmDbVq1ZJZYKdOnUrZsmVlP4Sg+/nnn3F1dZUpvydNmkTp0qVN2puamsrkyZMpVKiQzA6rfgsXbQYICAjAycnppX2vV6+eTMUtykhKSqJ27dp8/vnnJvfu378fZ2dn2YdXQfRn2rRpr+ynyNJbqlQpBgwYYFLGkydPiI6OBl4/nrn1s0+fPnh6ehIXF/darUrQrk+fPjRr1oy2bdvy2WefAci5UK5cObp162by3NOnT3n8+DEAVatWlSngBaKiooiMjARgz549FChQQGaUFQgODqZ48eLMmDFD/jZ+/HicnZ25deuWyb0RERHMmzePlJQU2rRpQ4cOHUzaOGXKFN577z38/Pxo1qxZrn0tVaqUTBsvcP78eezs7GSG6ewIDQ3FwcFBZgQXCAkJoXjx4owcORLAxF+cl5HX+K1ZUP0NEILq4MGDODo6snnzZpydnfn555+BLFNb6dKl2bVrF7/99hsWFhbS7AawaNEirK2tuXHjhqTTjBkzcHR0zFFX9kWk1qZ++OEHrK2tZbprtTkFXmgDv/zyC0WKFJGCSmghQUFB5M+fX6bdFs5myGJGFhYWMmX8N998g5ubWw4Gvm7dOkqVKiUF1TfffIOzs7PU2tTBC+7u7gwbNky+hasZsWj3/PnzKV68+Etpv2jRIooVKybfiMU42Nrasm/fPpNAlo0bN2Jvb8+tW7fIzMzMESSipq3oj9AgXtZPIahq165NnTp1ePjwIQkJCTn8NTNnzsx1PMV1f3//HP0cPHgw5cqVIyoq6qVv++pAibi4OIoXL86ePXtYtmwZHh4exMXFyeeaNWuGt7c39+7dIyEhIYf/68MPP6RKlSrcvXuX+Ph4k/oUReGTTz7B09NT/qY+k1Ov1+Pu7k58fDzp6ek4ODhI86OYh9k11pYtW9K2bVsAqY1VrlyZ6dOnExwcTLFixbh+/boM7snMzCQ6OhoHBwd++OEHk4CWc+fOYWNjw6FDh3KlUWhoKMWLF2fz5s1y7EV7vv32W0qVKsWDBw9e6VvLS8hr/NYsqP4GiIl96NAh7OzsuHHjBuPGjaNixYoYjUZCQkIoXbo0O3fu5NixYxQsWJDNmzcTHBzMhg0bqFKlCkOHDgVeMMKZM2diZ2dHcHAwp06dIjg4mBs3buQ4cV6d8XPUqFFUrFiR6OhoE8YmGJnaX6IWVOItcsqUKTg6OkrNTmQWVRSFe/fuUbx4cb766isAJk6ciJubm9QYhBDMTVBlT+uSkpICIP1HauElINrq7++PjY0Nx48fJzg4WH5EG2NiYnBwcGDJkiXS9zF8+HB8fHykJiLK2rx5Mw4ODty9e9ekjtyQXVC9rJ/C9xcSEoKPjw9OTk40adKEIUOGcOzYMdln9Xiqx1T46rL3c/ny5bi5uTFv3jw5zi970xd1LFy4EHt7e4xGIxcvXqRUqVKsXbtWPn/16lXq1KmDo6MjjRo1YtCgQRw6dEjS//r167z//vs4ODjw/vvvM3DgQPbv3y9pUb58eXr37m0yp4Rv9bvvviN//vzcu3ePBw8ekD9/foKCgkxepNQvI+np6bRs2ZJ27drJawcOHMDKyopr166RnJxMpUqV+PrrrwFkPc+ePaNEiRKsXLkSeLH2zp49S/HixZk3bx7BwcGcOHGC4OBgOT6XLl3Czs6OoKAgWb+Y9zt27KBgwYKcOHHCZOz/yRBzQUQ8qn9T/59X+K1ZUP0NEIvl119/xcHBgQsXLhAfH4+tra30g2i1Wnbt2sXRo0cpUqQIFStWxNvbG0dHR6pUqUJMTIz0J0CWz8PCwgJPT0+qV6+Op6cnw4YNIzk5GXjho1KnOB88eDDVq1eXpi01cxNvpZBToxLPjx8/njJlykhtT4TTK4rCw4cP0el00pc2ceJE3N3dJQNXaxparTZXQSXaLN6CP/zwQ+rVq2cSsiwg5saCBQuwsLCgWrVqeHp64uPjg6enJ3PnzpX3+/r6UrduXQAePHiAu7s73377rWyXuO/3CqpX9fPcuXMmfQsJCWHhwoW0atUKCwsLfvjhByDL9Jc/f348PT1N+iF8UP7+/rKf3t7eWFtb06ZNG5Pw9ewQNBMvKvXq1cNgMMjrer2ezp07S21W0OHChQssXryYjz/+mPz58/Pdd99JIQ9ZTH3p0qW0bduWd999V9La3d2doUOHmsw9oZmsXr2ad999lzt37nDr1i0KFizIzp07TdonBJXQaNQaFYCfn5+JaXLx4sV4enqahKDHxsbmKqhOnTqFTqfD3d0db29vvLy88PT0lOW/SlDt2rWLwoULc+jQIRPBmpeg1hDVaymv8FuzoPoboNao7O3tJfP6+uuv8fb2JiQkBJ1Ox86dO6XpT/iA7t27R6VKlRgwYICJMJkxYwYlS5Z8bd1iYSmKwqRJk3B1deXhw4dkZGTIdmU3u2TXqMQkX7BgAdbW1ly7dk0+n5mZSUZGBrdu3aJo0aJMnz4dRVEwGAxotVqePn1qYppZvXo1JUuWlG+yEydOzKFRCWFbv3592rZtm2vUn9r0Z29vn2vfhRD99ddfKVy4ME+ePGHTpk04ODhw6dIlwPSN820ElaDJ9OnTX9nPCxcuyGeEGUyge/fuVKxYkaSkJObPn/9KX1v2fp49e5aSJUsya9YsE9pl16rE75cuXSJ//vx06tSJqVOnMm3aNJo1a4a1tTXXr19/aRv1ej0eHh48ePAAQI6NwLBhw3B2diYhIYG6devy0UcfAS9on5KSIiP4LC0tefz4MXFxcRQoUIAVK1aQnp4u61TP7/T0dFq0aMEnn3wCZL1guLq6UrduXaZNm8bUqVPp27cvGo2G3bt3y3n+Mo3q3LlzWFtbS1NsdgjTX3ZBlZmZyfr167G2tpZzJi+Y/sQ8WLt2rUmgj5jTYs7nFX5rFlR/A9SCysHBgZCQEBRF4cGDB1SqVInu3bvj7e3N1q1b+e233yhQoADXrl2TC3jTpk0ULVqUU6dOyTJnzpxJiRIlct0sCaZMXbwBHjp0CEtLSxlyK54T9wvH9o4dOyhSpAiXL18mNTWV58+fk5qayvHjxylSpAirV68GICUlRTKWVatWYWVlJRnBsmXLsLS0lAxchBIvWLCAUqVKSWEgfFSpqakkJydLs194eDgFCxZk2bJlsn25+aj8/f2xs7MjNjaW+Ph4+RFRYuLeKlWqMGzYMPr06UOLFi2kpqnWKn+PRrVixYpX9jPs/8PTQ0NDZZmxsbFAVoCEvb09kZGRLFiwgOLFi5v0IT4+nufPn0sflZ2dHUlJSVJYfPvttzg7O3P//v1cfSdqDXzYsGFUrVqVQYMG0bdvX/r168eQIUPQ6XRSIxJtFJqJoiisWLECW1tbwsLC5PwwGo08e/YMo9HI+vXrKVy4MPfv32fy5MnY2dlJGiQnJ0s6NWnShBYtWkgBX6tWLanNCF+WGK87d+6QmppKy5YtadOmDUajEX9/fzw8PNDr9fTr14++ffvy2Wef4ePjg5+fnyznZRpVSEgItra2bN68mfj4eJ49eyb/Go1GKag2bNhAamqqSbBQ27ZtqV27NomJiWRmZuYJviTaqNFoaN68OUuWLJHX1NrV8+fP8wS/NQuqvwFisRw+fJiSJUtKjSozM5MlS5bw7rvv4uLiwq5duzh27BhFihSR+4wE86tZs6ZJ1NisWbMknV4FweAzMjJIS0tj4MCBuLm5sXfvXnlPaGgonTt3ZtGiRQBs27YNKysryXDUGDlyJI6Ojuzfv1/+tm/fPuzt7RkzZox8s338+DFOTk589tlnkgHdvHkTd3d3+vTpIxnY5MmTcXd3N6nj+PHjVK5cmfr16xMfHy/p8LKov1dplkLLmDVrFnZ2dpQtW5YlS5ZIJq7WQrZs2ULJkiXfSFAJhvXkyZNX9lMIiqpVqzJt2jQ5F27fvk3ZsmVp1aoV6enpzJ0797VRf46OjrLezMxMIiIipKB5GY0yMzNJSkqiXLlyLFy4MEe5o0aNokGDBgDUrVuXr7/+Wr68REREULVqVerXr096ejqNGjVizJgxUlA+fPgQHx8f6tatS1JSEk+fPsXDw4MPP/xQbpOArC0IdnZ2HDt2TI7JoUOHsLW1ZeLEibK+9PR0pk2bRvfu3UlLS6NNmza0b98eyPJX9u/fP0f7169fj7u7u9T4oqOjcXZ2ZtWqVcCLtSei/tT7BdUQUX/qbSORkZEMHz6cokWLsnPnTtnGvBD1J+aik5MTGo0GjUaDXq/n/v37wAvzel7ht/9IQeXs7Czt7uqoJXFf9v9z+/6qa29azu+9lv27mNz79u0jX758nD59Wl57+vQpFSpUkCaMgwcPotFoTAIZAJYuXUr+/Pnl3pfx48dToECBN26P8CfFx8czefJkGjRowHvvvUetWrWoV68eAwYMkMJR7KMqX7483t7eVK9enWrVquHn58fTp0+ZMmUKtWrVokaNGvj4+FCvXj2mTp3K8+fPpSkQsjS4hg0b4uXlhY+PD1WrVqVPnz48fvxYMtXx48ej0Wjw8vKievXq1K9fn6ZNmzJmzBgePnwImDJgtd8FsgS2eF6U4eXlRc+ePXn48KG8/8GDB2g0GkqXLs2zZ88kE1dvQF27di358+fn1q1bJnW8jKaCGWTvZ7Vq1WQ/xb3Lly+nUaNG1KlTh9q1a+Pj40OXLl2k2W3y5Mkm/fDx8ZH9iI+PZ86cObzzzjvSnyPmxYgRIyhevLhkQGozrhCS33//Pfny5ePq1avymCChJe/atUvu69uxYwcNGzakbt261KpVi/fee4+OHTtKTeunn36iadOm1K1bl5o1a/Lee+/Rrl07RxTjrgAAIABJREFUeR3gxo0b+Pr6yus1a9akZcuW8sVI3b69e/fSqlUrOZfq169Ps2bN2LNnDxkZGdSsWZP27dtz9+5duVcuPT2dxMREkpKSSE1N5caNG9jY2DBjxgwUReHJkyfkz59fvoyItXfixAksLS3R6XRyjnh5eVG3bl2Cg4MJDQ3FysqKUqVK4ePjQ40aNWjYsCEdO3bkwIEDJm3/PTzgr+IzL7smhI6trS358uXjnXfeQaPRULFiRRM/ZXx8vFlQvQ1yU0Xzgi34TaBmHLdu3ZLmLchiwpGRkdy+fZvk5GSSkpIko1Q/m56ezrVr16SWEx0dLYWZ+j51ubn9L/DgwQPOnTtHcHCwSTmQZbIJCwuT0VFnzpzh9OnT0kYPWaY5ETUl3mZzqz8+Pp6QkBBOnjxpEpUoEBMTw5UrVzh9+jSnT58mJCSEe/fuvVE/FEUhISGBW7duceLECdnW4OBgLl26lGP+3LlzxyTsX12O6PfNmzdNnlPTNbvGov4/JiaGkJAQzpw5w/Xr13N1uMfFxXH58mWCg4O5du2aSdRlfHw8N2/e5Pjx4yb9CA0NRVEUnj9/brI9QTyXmJgo51R2Wol7o6KiTPYrqcvIyMjgxo0bcl7FxMRw8eJFzp49K6Pr1IiNjeXq1aucOXOG0NDQHHMZshheaGioHIe4uLgc9Fav9wsXLnDmzBmuXLkizaKQpbE9evSI1NRUbt++bXK+n7rO+/fvyxB9gLCwsBx1JicnEx4ezvnz5+VcOX36NGfPnuXZs2dkZGRw7949zp49y4kTJzh37hw3b9402W+YlyBoUaxYMalRiY3S+fLlw8PDg927d2M0Gs2C6m2g1qicnJyIjY2VB3FGRUVJ80BMTIxJhFVUVJS0J8fFxckJazQaiYqKIiEhAchaEFFRUXIwoqKiZPRbcnIyUVFR8g1UXUdaWppJHc+ePZPOyczMzLeqQ70Io6OjZR1g6u9JT0+X+3JEHaJ+0VYBdR1JSUkm5jq1D0q0XZQjDt0UiI2Nlf1Q+0FEe8T4JCUlmbQ7LS1N3puSkkJ0dLRkXjExMbJMcV34jhISEkz6kd2/FhMTI9unpo34LpCYmGjyXS0gxHioHfvC3JeYmEhUVJS8PyoqSpoZ09LSTPqRnp5uUof6//j4eHl8lLhXjP/z58+Jjo6WWlBCQoJJ+549eybLev78+Uv7ER8fLxmvmNfx8fEoiiI1JHXb1M+qxzE2NlbSXKwd8WxiYqJJP9R7yMRYCQGekpIi+5iRkcHTp0/lPIuKijIREuJQWuHXUm+NePr0aa50VRTFhP7ZDwjOzgOSkpJke+Li4mSfxb4qMQdFNKGaxqKPKSkpJn4p9ZinpqYSFRVFcnIyiqLkygPEuhO0yo0HJCUlmfCZ6Ohouc4FnxFtf5M6xLxW01zUIcbD1tZWCiqNRsO7774r/y9UqBBdunQxC6q3gWBSGRkZ5MuXj8aNG6MoCqtWrUKn07Fr1y4APD09cXNzA7LOU9PpdHIvSdu2bdHpdBiNRp48eYJOp2PgwIEAjBkzBp1OJ/0POp2ODz74AIDly5ej0+nYt28fAJUrV8bDwwPIOrdMp9MRGBgIwEcffYROpwOQIdlij9OIESPQ6XRSI9DpdLRs2RJFUVi8eDE6nY6DBw+iKAoVKlSgQoUKKIrCwYMH0Wq1LF68GEVRaNGihazj3r17MuzbaDRKB/iDBw8wGo3odDo++ugjFEUhMDAQjUbDggULuHDhgpyQFy5cYM6cOVhbW7N8+XKMRiPNmjVDq9ViNBq5c+cOWq2WMWPGADBw4EC0Wi2PHz8mIyMDrVbLJ598gtFoZN68eeh0Onm0T+nSpalWrRqKorBz5050Op30DzRu3FjWcf36dbRaLV999RWKotC/f390Op1cVFqtlg4dOmA0GuUpDadPnyY9PV2+BV64cEGayEaPHs2NGzeoXbu2rOPy5ctotVrGjx+P0Wikd+/e6HQ6nj17RnJyMlqtFl9fXxRFYdq0aeh0Os6dO4eiKOh0OmrUqIHRaGTz5s3odDp+/vlnbt68SZEiRSQd16xZg0ajwdfXl+fPn9OjRw+0Wi0JCQkkJCSg1Wrp1q0biqIwefJkdDodly5dQlEUtFottWvXxmg0yvB1cZZgjRo1ZD/Onj2LVqtl6tSpGI1GfH190Wq1JCUl8ezZM3Q6Hb1795amU3ESgxhza2trLly4wOjRo+VRQ0ajkerVq+Pi4oKiKJw+fRqdTsesWbMwGo107NgRnU4nmbJWq6Vfv34oisLYsWPR6XRSo9NqtTRq1Aij0cjKlSvl+lQURa5Po9HIb7/9hlarlcEaua1P4dsbPXo0Wq2WO3fuyPFo1qyZNJtqtVppPlSvzyNHjqDValmwYIFcn1qtFkVRTNanoih88cUXaLVawsPDMRqNaLVaWrRoIdenVqvlwIEDGI1GypUrR7ly5VCUrKhRnU7H4sWLAWjZsmWO9TlixAgAhg4dik6nk2ZrsT4BAgMD0el0csO8h4cHlStXBrL8vDqdjuXLlwNZPjlRx927d9HpdCbrU6fT8eTJE8kDRGCKWJ9iz5e1tbWJoNJoNLzzzjvyKDeNRiM3mpsF1RtAbQoQTuX/FdPf3wExyb755huqVatG1apV5WkIlSpVok6dOvLcuby0D+Tp06c0btyY2rVrU6lSJTw9PalXrx5eXl58+umnJqHNfwW6dOki/Xii/jp16tCiRYuXOub/LqjNYG3btqVSpUrSv1SlShW8vLzo0KFDjmOKzPj3QG3602g05M+fX/7v4uLChAkTJL81C6o3gNr05+zsLPfoqMOIAZP9P8LhrbaNqzcPijKyXxPlqPcUvG0d6mt/tI7s1/5IHa/D29aR/Zr6pIvX9SM3Ov6eOl6F7EEPf0U/XoW/klZvMq/VG7rftK1vW0duc+7P7se/ZX2+KR3/6PoU34WgUmtRRYsWpW3bttLn7OzsLMv9p+IfKajygs30nwS1c1psoMz+UW/2exMB8N+G2l+lTtL4JvvG/oy6xedV9BRM5b9FT3U7X0ajf0I7zfj7Icbc1taW/Pnzy6i/Dz/8UJ7HCVl+y7zAb82CygwzzDDjfwxCUDk6OsogisDAQJPN2JmZmXmG35oFlRlmmGHG/xjUJ1MMHDhQbrYG88kUfwhmQWWGGWaY8edA8NPQ0FAZDq/2gZnP+vudMAsqM8www4y/BuoTQdQ+7bzCb82CygwzzDDjfwyCn2Y/fiz79bzCb82CygwzzDDjX4a8xm/NgsoMM8ww41+GvMZvzYLKDDPMMONfhrzGb82CygwzzDDjX4a8xm/NgsoMM8ww41+GvMZvzYLKjBxhq+rw1dx+f9nnVWW97L43aUduz77p9zdp3+t+/6v68rK63ua53J59G1q+bR9/z3j/Xpqb8dchr/Fbs6Ay40/D72Uub8qk3qT8P/r82+B1wuqfjLcRBrn18W36+zIhmls5eY2OeRV5jd+aBZUZkvYZGRnExsYSGxtrwlyMRiOxsbHyfLDY2FgiIiIICwsjIiJCnh+mfiY1NZXo6GjCw8MJCwuTH5Gc8FVaCGQd7XL//n3Cw8N58uSJyVzIyMggOjpa7rjPjZEmJCQQERFBeHi4SYJGsSM/NTWVmJgYkxOq4UXSSpE+RCTuFP2IiIgwSRz5MmH1Ojo8fvyY+Ph4YmJicqQ4V5SsxILx8fGSzmFhYdy7d4+nT59y7949+Ztoy8uEQXp6usl43b9/32S8IOtInZiYGJNyw8LCePDggUwJI+6Ni4vL0f/c+hkREWFCd0VR5NxSt1d8IiMjTRInmgXWX4u8xm/NgsoMyawvX76Mm5sbBQoUIDQ0VF5/8uQJHh4ezJ07l9u3b2Nra0uJEiUoU6YMFStWpE6dOjKxpWDw69atI1++fLi4uFCmTBnc3d0pU6YMa9asATDJtKpmzkajkS1bttCqVSuqVKlCxYoVqVmzJgMGDJB5lUJCQihUqBBbt24FXmRqFQx/69atNG3alMqVK1OhQgXq1KnD9OnTSUxMlIx3zZo12NjYcP78eZP2nDp1ChsbGzZs2ABkJdV85513cHV1pWzZsnh5edGoUSPGjh3L/fv3Tdqvhqhn06ZNWFhYoNVqKVOmDB4eHri7u9O9e3eWLl2KtbU1v/76K2CavuHMmTOUKVMGZ2dn3N3dcXd3x9nZGY1Gg5OTE+XLl8fd3Z1vvvkm1zaI+o8ePYqdnR2Ojo5yvOrXry+ThALs3LmTIkWKUKpUKZM2Nm/enLt376IoWafIZ2RkoNPp0Gg08ndBN3U/y5YtS7Vq1Xj//fcZNWoUN2/eBGDu3LlYWVnJ76KNS5cuxcrKilOnTkk6mAXVX4u8xm/NgsoMSefQ0FDee+89LCws+OKLLyTDePLkCVWrViUgIICIiAgsLS1lBtGMjAx69+6No6MjT58+lUJv48aNFC1a1CTVeG5QFMUkT8+yZcsoVqwYCxYskHPi+vXrdOzYkf/85z8AnD17Fjs7O3bs2AG8SP+uKApr1qzB0tISf39/Wcfhw4dxcnKiX79+kjmuX7+ekiVLcvHiRVkGwJkzZyhZsqTMvLtq1SqsrKxMGOeJEyeoUaMG3t7ePHjwQNJQfY+gw/bt2ylatKhMR65GRkYGtWrVYsiQISa5hgBmzZqFq6ur1EABIiIisLGx4fLly6+kqbr+U6dOYW1tbSKQu3XrhlarJTIyEsjKLmtpaSn7kh3iBWLv3r04ODhQrlw5xo0bB7xIdZ9bP8+ePUvDhg0pX768fMlo3bo1TZo0kS8Xd+7cwcXFhblz5wKmJymY8dchr/Fbs6AyQ9L58uXLVKpUiV69elGuXDmOHTtGZmYmT548oXLlygQEBHDv3j0sLS3ZsmULCQkJpKenc/36dQoVKsTu3btlmRs2bMDS0pIbN26QkJBAfHw8iYmJuebEEr+Fh4fj7OzMlClTgCzhoda8REbd8+fPU6xYMSmoxD2RkZG4uroydOhQ+bu4tm/fPgoUKCA1vzVr1uDk5JSroHJycpKCauXKlVhaWvLo0SPS0tKk4I2JicHJyYlx48ZJYZuboNq2bRuWlpZcunRJpqtPSEjg2bNnKEpWunoXFxciIyPl8/Hx8dSsWZNBgwahKArJycmkpaVx9uxZihYtyuHDh0lPTyclJcWEnrnVHxwcjLW1NTt37pTjdfHiRQoXLixTu+/atQtLS0uCg4PlWCUkJJCUlITRaJS06dSpE127dmX+/PmUK1eO5ORkqUGLfl6/ft2ETklJSbi5uTFo0CDS0tK4c+cOdnZ2LFy4EID27dvTuHFjEhISTBL+mYXVX4u8xm/NgsoMSedr167h7OzMzp076dmzJ61btwYgKiqKKlWqSI2qUKFCnDt3Tj4/fvx4ChUqxN27d000qiJFiry2bkVRpDYVFBSEpaUlZ86cMRFSwqwncOHChRyCSlEUjhw5wrvvvsvu3bvl8+JZMa8GDBgAwI8//oijoyMXLlwATAWVo6OjiUZVtGhR6W8xGo2SCffu3RsfHx/p81FnBFZrVEWKFDERuOq+3717l+LFi7NhwwYpbI4ePYqtrS179+41Ma9dvHgRKysrfvvttxz1ZYdaoypatCjXrl2T10aPHk3RokW5e/cuAHv27KFw4cLSf6SG0WjEaDTy6NEj7O3t2bNnD/fv36dEiRL88ssvct1u374dS0tL7ty5k4NOI0aMoEKFCtK3tWLFChwdHRk9ejROTk7SzCwSYZqF1F+PvMZvzYLKDBNBpdVq2bx5MxERERQuXJjTp08TExND5cqV8ff35+7du5QoUQIvLy+aNWtG/fr18fDwkIxdMFWhUdWrV48PPviAJk2aMGDAAMkM1ekGRP0LFy7EyclJMrvsJz6Lt/fsGpUQMmvXrsXa2loKH3Vag+TkZGrWrEmrVq2ALAHk5OSUQ1CdPn36lYJKURRSUlIwGo2MGjUKNzc3njx5In1sAkJQBAUFYWVlRd26dWnatKmkxddffy3b9uGHH9KmTRv5/JAhQ6hevTrJyckmffg9gur48eOULFmS6tWry/EqV66cpB3A7t27KVasGLVq1aJp06Y0a9aMJk2aMHr0aCk85syZg5ubmwxiadGiBZ9++qksQ2hUYuzEeBmNRqZMmULJkiUJCwuTfezRowcajYb58+dL+psF1J8HdYBUbhme8xq/NQsqM0wElaurK6tXrwayzDLNmzcnPj5emv7Cw8OxtbXl66+/ZvPmzRgMBuzs7Pjxxx8B5Fu0EFRLly5l8+bNbNq0iQMHDphEdgEmQRDLli3D3t6emzdvSsavjgwTwiQ3QaUoCps3b6ZQoUKcPn1aamrCJJecnEzVqlX55JNPUBSFlStXSo1KlC2CGBwdHdm0aRPwckGlKArDhg3Dw8NDXstNUG3bto2iRYuycOFCNm/eLGlx4sQJ6ftZt24dNjY2REZGEh8fj06n49tvvwVMk9z9HkF18uRJ7OzsmDRpEps3b2bChAkUL16c9evXy/7s3bsXKysr5s2bJ9u3adMmjhw5IvtUp04d6SME+OWXX3B2dpZBFUFBQRQpUiSHoFIUhUmTJlGqVCmT4JNt27Zhb2/PrVu3ZBCJel6Y8edCvY7AnI/qd8MsqP57EHS+fv06rq6urF27FqPRyNWrVylevDjff/89Pj4+zJ8/X2pax48fl8/PnDkTe3t7wsPD5QIQpj/hbH8ZhEABOHToEIUKFZIRacJ0JyD+F6a/7du3SxOT0WgkJCSEd999l7Vr18rnRd9iYmKwtrZm/Pjxsn1WVlacPXsWeBGtePLkSaytrfnll1+AFz6qyMhIKVRFO1q3bk2LFi1MTJQC2U1/MTExOfouyktLS0On0+Hv78/27duxs7Pj1q1bJsIW/pjpT22qnTx5Mk5OTty7dw9FUdizZw9FihQhIiIi1/E5fvw49vb22Nra4urqiouLCyVLljTRiDZt2oSlpSW3bt3KQaeuXbtSt25dEhMTZZnbtm3DwcGB27dvm7yUmPHnQNC+evXqBAUFmVxTCyxzht+3hFlQ/fegFlRubm7ybRtg6NChaLVa3nvvPSmorKys2Llzp3wuNjYWrVbLl19+KZ8TguDevXvyjTm7KU9dv6IoxMfHU69ePdq3b5/Dp3P9+nWptZ07dw47OzsOHjyYoy/NmzenYcOGOZ6fMGEC9vb23LhxA0VRuHz5Mra2tixbtszkPn9/fxwcHLhx4wYAq1evxtraOkf04i+//EL+/Pn56aefTPogoBZUVlZWPHr0KFfai/uGDx9OlSpV+OSTT6R5UmhTao3KxsbmrQWVra0tBw8elOMVGRkpA0EgKzzdysqK27dv51rWsGHDaNSoEREREURGRvL48WOePn3K0KFDadCgAfDC9CciCQUOHz5MoUKFWLRokUm7tm3bRokSJWQ0oHmt/7kQ9CxcuDD58uXDy8tLarSA9AvnFX5rFlRmSOZx5coVbG1tWbVqFZA1Jo8fP6ZAgQJoNBrmzZvHnTt30Gg0bN++3eTZ6dOnY2NjI532P/74IxqNRr6lv4ypCkYsygkJCaFChQp06tSJXbt2ceLECQIDA6lUqRKzZs0CsiLZLCwsmD59OqdOneLEiROcOHGCCxcucP78eSpWrEiHDh04cOAAx44dY8KECZQsWZKVK1cCL7SnMWPG4OrqyvLlywkODua7776jVKlSTJw4UbZvxYoVaDQa9uzZw6lTp/j111+ZNm0arq6ujBgxQi747P1T76PSaDRs2rSJU6dOERwczKlTp7hw4QKJiYkyWCE0NBSNRoNGo5F7uARNRNnnzp1Do9Fw+PBh4NXrQ9R//PhxNBqN1FJFmZMmTcLW1paoqCj279+PRqNh9erVnDp1ipMnT3Ly5EkuXbrEzZs3cXZ2Zvr06TnqOHjwIBYWFvz222/s27fPpJ+//vors2fPxt3dHb1eL82Aao07f/788oVAtMuMPweCznZ2dnJeFS1alCVLlpi8TMTFxeUJfvuPFFTOzs7SbJOZmSmdspD1likYjdFoJDU1VU7y9PR0uSCEjVws2IyMDHkNspiVeOvOrQ61OSc1NVUOoqhDtFldf251iPr/aXWo6SjKvHv3Lp07d2bv3r0mdc6ZM4d69eqxfft2Hjx4QJMmTTh58iSQFX6clpbG/fv3adGiBevWrSMzM5MDBw7QtGlTuTfnTcZKaC2PHz/mq6++okGDBtSsWZN27dqxbt06uV/q4sWL+Pr64uPjQ+XKlalYsSLVqlWjefPmPHr0iKdPnzJ27Fhq1apFtWrV8PPzkyY+oaVkZGSQnp7OypUr+eCDD6hcuTJNmjRh3bp1sl+ZmZns37+fJk2aULFiRby9vXn//ffp1asXhw4deuWcE1rkgQMHaN26Nd7e3lSsWJHKlStTrVo1WrZsyblz5+R9RqORjh070rZtW1JSUiStRNRfamoqt2/fplWrVpw9e1buQxJjpz5xQ712Lly4QMuWLTl//jxpaWkkJibKaMOGDRuyb98+rl+/TosWLahcuTKenp54enpSoUIFPv74YxYtWkTbtm05ffq0rE+Ey0dFRdGxY0d++uknLl26JMuoXLkyDRo0wM/Pj507d8o1LvqhKAq//fYbrVq1Ijw8PMc18/o0XZ/Z63gTPifutbW1lYLq3XffRaPR4OnpybZt26RZ3tnZWbbvn4p/nKBKSEjAxcUFML9l/RPwZ/gNspehNqOpFz282pz1Z/kw/qxy1AtbzXQAkz79HVCHg/836n8dzP6n/w6KFSsmBZVGoyFfvnzy/169enHy5Em0Wi1gFlRvBDGR09LSKFKkCBMnTsRoNHLo0CH0er10Bo8cOZJBgwYBWX4LvV4vHd8zZsxAr9djNBqJi4tDr9ezdOlSIMvXoNfrefLkCQB6vR6DwQDAgQMH0Ov1MlR5+PDhDB48GMgyh+n1erlRdNq0aej1eiDLQa/X6/n++++BLMe7Xq+XUWB6vV5Gb+3duxe9Xi/3jAwdOlRuTA0NDUWv18sNmN9++62sIyoqCr1eL81W33//PXq9Xjrn9Xo906ZNA7I2bur1eq5evQrA4MGDGT58OJAVgKDX6zlw4AAABoNB1vHkyRP0ej0//vgjaWlpLF68GL1eT1xcHEajkb59+zJ58mQyMzPZsWMHfn5+0sQ3aNAgRo4cidFo5OTJk/Tr149Dhw6RmZnJV199JfctPXr0yISOe/bsMTEnTZ8+XfqLtm3bRp8+fbhy5Qqpqan06dOHESNGyKi8/v37c+DAAVJTUxkzZgx+fn6kpqZy584dBgwYILWvuXPn4ufnx7Nnz0hJSUGv1zNv3jwURWHLli0MGDCAmzdvkpaWhp+fnzTlBQcHo9frOX78OJmZmYwaNUrWcevWLfr06cPPP/8MwIIFC5g8ebJJP0Q0YnBwMIMHD+bWrVukpqbi5+fHyJEjSU1N5dChQ/Tv35/g4GAUReHLL7+kd+/eclOsXq9ny5YtAMybN0+az2JjY+nfvz8LFy5EURQOHjyYg45iPoaEhNC/f3+OHz+O0Whk9OjRcsxv3ryJn58fQUFBGI1Gpk6dip+fH4mJiURHR+Pn50dAQAAZGRmsWLGC/v378+jRIxRFQa/XM3HiRBRFYd++ffTr14+zZ8+SmprK559/Tt++fUlNTSU0NJR+/fpJeqjXZ2xsLL1792bJkiXm9fmG61NE4y5dutRkfer1embMmAFk+U71ej3Xr18HwMbGxkRQaTQa3nnnHWnOt7e3p2TJkoBZUL0R1KqylZUVixYtwmg0cubMGQwGg2SMs2fPlicXhIWFYTAYOHLkCJDlTzAYDCiKQkJCAgaDQYYZ//LLLxgMBrnp0GAwsHjxYiCLoRgMBmkvnzlzJlOnTgXgzp07GAwG6cD+/vvv5QKKi4vDYDDIqJpt27ZhMBjkXiGDwSAF5YkTJzAYDNJ5PH36dMlgbt26hcFgkMcSLV26VNYRGxuLwWBg27ZtQNa+HIPBQFxcnKxDLMTffvsNg8EgQ4SnTp3KzJkzAbhx4wYGg4Hg4GAAFi9eLOuIjo7GYDBIgb9p0yYMBgMJCQkoioLBYGDFihUAHDlyBIPBQFhYGABTpkxh9uzZAFy9ehWDwcCZM2cAWLRokRyPyMhIDAYDvr6+tGrVSi6ahg0b0rx5czQaDe3atQOyGJPBYJD+rcmTJ8sjdi5fvozBYJCnVAQGBsp+PHnyBIPBwJ49e4CsY5IMBgPJycmkp6djMBjkYj948CAGg0GaJg0Gg4xgu3TpEgaDQR47FBAQIOt49OgRBoOBffv2YTQaWblyJRqNRu4/Ev1q1aoVOp2OPn368OjRIzIzMzEYDAQEBABZIfYGg4FLly4BMH/+fFnHgwcPMBgMMlhk9erVGAwG0tPTSU5OxmAwyMhGUafYIybqb9euHXPnzsVgMMjTN+bOnSuFakREBAaDQZowV61ahcFgkJujDQaD9JXt3LkTg8HA06dPJa1EcIR5ff4z16fYzP0yQZU/f340Go2M4ASzoHojmE1//7tQm33Cw8NZs2YNe/fu5fDhw6xdu5Y1a9Zw5MgRk1O58wJEv86dO8dPP/3E2rVrOXz4MHv37mXNmjVSCMCrTZp/BFeuXOHw4cNs2LBB0vHAgQOsX79eChYz/r3IbvpTf0aMGMHVq1fNwRRvg+zBFMIhnZmZKR3HkOXTEI5DcQ6ZILBwkKs3iAphJ8oR9eR27W3qEG1Wl6OuPy/W8TZ0fJM61NfUG3ZfhzepI7drf3Y/3qSO1y1udXj5m9bxNvP6dfir1o46QMC8Pv956zO3YArxadCgASdPnpRbRszBFG8Bc3j6/y6y74jPyMjI9ZPbUS//VKh3+ovIveyfl+0b+7PqhpfTU73hNi/Q04w/F2LsixcvLgVUyZIl2bRpk8km/Pj4+DzBb82CygwzzDDjfwyCd1pYWGBlZUXTpk1JSEgwuW7e8Ps7YBZawHmFAAAgAElEQVRUZphhhhl/DoRG1aJFC5mYU20FENfNRyi9JcyCygwzzDDjr0F2M3Re47dmQWWGGWaY8T8G9b7U3JJR5jV+axZUZphhhhn/MuQ1fmsWVGaYYYYZ/zLkNX5rFlRmmGGGGf8y5DV+axZUZphhhhn/MuQ1fmsWVGaYYYYZ/zLkNX5rFlRmmGGGGf8y5DV++68QVKJskbhM5A1SH0OTlpaG0WiU96g/IoGd+hmRoCz751XH1mSvTzwjQkiztzP7vgf1dfXz6vPD1O0TSQJf9Xv2fqSlpZmU97q+vIwO4iif7G3I3sfXfdShtdnpIHJZverZNx1PkYBOnf49e1vVZ6+px0Fdhpoe2cc1N1qL69nLEOOblpZm0l5xT/a+i/kr+vGqT25z9E3mQ/Z2iraJ7+p5mb3dr5q7r6NB9jFTt1Ndf/b5raZT9hDt7Oc3quvKjVbw4jy+7OP3urksxuZ1deR2z8vo+EdhFlS/E3834d72NOs/cvq1ehG+6jDRN0ka+LLn1bvN/yyo6/ojC+SvOjn8jyB7m9T9e1V7X3XtZfP1dbRTC46XjW92Rv3fwKvm7pus1Ted+y87vPhlNHhTuvzROfzfpP+fLazMgup34q8knCjn/PnzjB49WuaHEb9fv36dyZMn8+DBA86fP8+IESPo0qULXbt2ZdiwYezfv1+2USyonTt3MnToUHx9fenSpQu+vr70799fptbOjaGJhRoZGcmcOXPo3bs3ffr0Yd68edy/f1/ed/LkScaOHWuSilq8sUJW3qWZM2fSs2dP+vbty8qVK+XiFn83bdrE3Llzcwi4Q4cOMW3aNJ49ewZk5egZMmQIvr6+9OjRg6FDh/L999/z/Plzk7qzQ/y2Z88eSQdfX1+6deuGr68vP/74I2vWrGHOnDkmz4i354sXLzJx4kRJO19fX/r168fQoUPp2rUrXbt2xdfXV+bnUWs5oi9TpkzB19eXrl270qtXL4YPH0737t3p1q0bXbp0YdeuXZw+fZpRo0a9djwVReGrr75i3rx5cvzEtaNHjzJy5EiZO0nQ+PTp00ydOlUm4gPYt28fQ4cOpW/fvkyYMIHLly/Lazt27JC06tGjB5MmTZJ5g9Rt+fXXXxk+fDg9e/Zk9OjRMr+XuJ6YmMiyZcvQ6/V06dKF3r17M2PGDCIjI3n27JnJnBw0aBCDBg2SNO7ZsycPHz40GcOXjWf37t0ZMmQIixcvlvNFtCElJYV58+axefNmWYbIDdWrVy+GDRvGtm3b5P1izB4+fMjMmTPx8/OjX79+BAQE8OjRI5P5AXD27Fm+/PJLOSdFbi7RzqCgIEaOHMmRI0ekFglZ63Lu3LnyFPHly5czcuRIrl+/Lg/whawkij/88AMAT58+Zf78+fTt25euXbtK2vXs2ZPz58+brKEff/wRvV5Pz549mTBhAtevXyc0NFTSy9fXl6FDh9K/f39ZztixYwkPD2fevHk56ujVq5dMChsREcGMGTPo3bs3Xbt2pU+fPkyYMIHjx4/nGKc/KqzMgup34q8knGAsK1askCcJh4eHy/K3b99OoUKFOH36tLxn9uzZBAYG8sUXX6DVamUSN/FM3759yZcvHwEBAcybN4+AgACWLVsmmZaaAaqZ6759+/Dy8qJbt27Mnj2bgIAAOnfuTL169Th79iyQleBOo9HIQySFCQPg8OHDeHp60qVLF/z9/Zk1axbNmjWjdevWREREyPZ169YNFxcX2Q6xkCdOnEixYsWkQO3atSsFCxaU/ZgxYwbt27fHx8eHo0ePmvRBDVHuoEGD0Gg0BAQEMH/+fAIDA/H39+fYsWMsXLgQjUbDnTt3ZBmiHYMGDcLBwYHZs2ezYMECAgICaNGiBRqNhqlTpxIYGMj8+fNlIju1oBJ9DAoKIiAggMDAQPr27YtGo+E///kPgYGBzJ07l/Pnz+Pv7//a8VQUhZCQEDQaDXZ2dpw/fx6j0SjbOm3aNDQaDSVKlCAmJkaajhcuXIiNjY1M6Ddt2jQqVarEhAkT8Pf3Z+bMmbRt21YmLuzZsycWFhYEBASwYMEC2rZtS4UKFbh8+bKk75dffknlypUZN24cAQEBjBkzhkqVKsnEkZCVSK98+fJ4eXmxYMEC5syZQ8OGDalTpw43b94kICAAf39/AgICcHFxwdXVlYCAAAICAli0aJFMHJibFpl9PGfNmkXnzp3x8vKSGW4hKymhm5sbvr6+AOzfvx9vb2969eqFv78//v7+9O7dWwp+yBLU1apVo1evXsyZMwd/f3/at29Pw4YNuXr1qmzPvHnzKF++PCNGjGDBggVMmDCBatWq8eWXX0rNol+/fmg0Gho1aiTNZQBDhgzB1dWV9PR0kpKSaNy4MRqNRmbSFXOnadOmNGzYEMjKdmxnZ0erVq3k3BG0un37NgB3796lefPmNG/enOnTp7NgwQI+//xzfHx8mD59uqSXv78/77zzDg0bNmTBggX4+/uzfv16Ll++jI2NDW3atCEwMFDyjO+++04mUgwJCcHCwoIuXbrIdowZMwZvb28GDhzI8+fP/zTLiVlQ/U78lYQTQmL9+vWULl0aDw8PmSJdUbLSaZcpU4YLFy6wfv167O3tTZ7v1asXVatWJS4uTrZz2LBhVK9e/Y3rNxqN3L17Fzc3N4YPHy41Fsg6aj8wMFCm0166dCn29vYkJiaaPH///n3Kly9Pjx49TJ6/c+cOFStWpEePHrKvgwcPpmbNmrK9grnOmTOHSpUqSQ1Or9dTt25dk/Y+ffqUzp07o9VqZfK9l5nKxowZQ9WqVXPtt9FopHTp0nzzzTcm/YiNjaVs2bIyE6zADz/88NKyXoezZ8/i5OQkU4ALLFmyhBIlSpj8ltt4Dh48mPr169OmTRvJ1JKSkoCsDL+lSpWibNmyjB8/XvZ/1apVVKhQgbD/z3ZsaWnJhAkTTOq6cuWK1EYGDx5MrVq15LWEhARKly4tU56vWrWKggULsnv3bpMyFi1ahKWlpUxTHhcXR40aNRg3bpy8JyIiAgsLC5YvX27ybM+ePenVq9dr6feq8YyNjaVv3744ODjIF5z4+Hjq1Kkj19Enn3yCl5eXSQqJx48fy5ToN27coFSpUowdO1bSVZQ9b948mWRyz549FCxYMEc/tm7dStGiRWXK99GjR6PVaqlUqZLMbgswfvx4atWqRUZGBklJSXTu3Bl3d3e8vb1lFmCAzp0706FDBwDu3buHu7s7q1atypU2iYmJfPzxxzRo0EBmhBY0CwoKkpqZgKenJwsWLDD5LSIigtKlS8vMzLnh6tWrODo6Su1R4PDhw9jY2MjxVvtFfy/Mgup34u8QVGvXrkWr1bJ27Vrs7OykBrN7925cXFw4f/48a9euxdraWjJ2yJr8Li4uPH78WP72+eefU6lSJcCUieemmouyvv32W0qUKCHLyZ4ATyzypUuXYmNjIwWVeFtcuHAhhQsXlmm/hcMVstKVFylSRKbLHjBgAN7e3jkE1cyZMylbtqwUVP3798fLy4uMjAyZsh2yzJNFixYlMDAwV41KfB85ciRly5bN0WdBk2HDhlGuXDmTfvz888/Y2tpy/vx5E6f4rFmz8PDwIDIyUv6eXTPN7u8TNNy5cye2traEhoZKJmU0Glm8eDG2trYvHU9FUXj+/DmOjo5s2bKFhQsXUqFCBZ4/fy7rnjNnDuXLl2fFihU4ODhw9+5dFEXh+++/x8PDQ5rvSpQoQb9+/aRDPzsGDRpE1apVSUtLk8KrXbt2NGrUCEVR8PT0pG3btsCLoAMxP9577z3atGkDZAmq6tWrM2zYMHlvZmYmxYoVY/LkySY0bdu2Le3atZN0Uif1y830N2rUKDw8PMjIyCAlJUXOh+fPn2Nvby9fLuLj46lRowZ9+/YFsgSiq6sr9+7dy+GLEmbVUqVKSW1OBNsICOHVqlUrkxfAtLQ0SctOnTrh5eVFSkoKQ4YMoVGjRkyfPp1KlSoRHx+Poij85z//wcfHh8zMTJKTk2nSpAl6vZ6+fftK2iqKQocOHeT38PBwXFxcpHDJHsBz5MgRChcuzM6dO2Wb1G1PSUkxCSIpV64c33zzjZwHGRkZhIWFodVq+e677wBTniHKunz5Mvb29qxfv17SX2DixInodDoePnxoYlX4vTALqt+Jv0NQrVu3DkdHR54+fcrHH3/Mhx9+CGSZJFxcXDh37hzr1q3D0tKS69evEx4ezo4dO3Bzc2Ps2LEmE2To0KF4eHgQHh7O7du3CQ8PJzo6OgcTEGY7RVHo2LEjDRs2JDk52USFF39F2cuWLTMRVOL5AQMGULFiRWJiYmRbxLUzZ85QsGBB+XbXv39/vL29c5j+Zs6cSbly5XIIKnjxpiaYU4UKFejRo4dJfwTE99GjR1O6dGkTOoSHh0vGcenSJYoUKcKBAwekQ9rX15cPPviAlJQUE5rOnTuXsmXLSq3obbLn7tmzh2LFikkhLpjb4sWLsba2znU8BW1++OEHihUrRmZmJufOncPZ2dnE9zJ79mzKli1LQkICPj4+fPbZZ7JsDw8PabrZsmULjo6OuLm50b59e2bMmCG1LUVRGDhwoKS16F+1atXo06cPCQkJFC1alBkzZpiYisVYfPbZZzg6OgIvhESvXr0IDw/nypUrDBs2jFKlSnHt2jUTmrZv354OHTq81rehFlTixUPMLTF3atSowSeffAJkCa4aNWpIWty4cYNGjRpha2tL48aN+eKLLzhy5IjsR4sWLWjVqpUsU8yF7H9Lly7NwIEDTcZXRMDOnDmTwoULExkZyZAhQ2jevDnR0dE4OTkRGBgo2+/j4yOFdYMGDRgzZgwXL17EysqKY8eOAVkvCKIvYWFhuLm5MXHiRMLDw7l58yZhYWGEhYXJlx17e3vu3Llj4udSzz+RqNJoNFK+fHkmT54MvFjbYWFhuLq6YjAYCA8P59atW4SHhxMRESHnqhBUGzZskPQX9Nq1axcFCxaUWuHrsmVnb1f2sTcLqt+Jv0ujcnBwIC4ujnPnzlGkSBFCQ0M5duwYJUuW5Pz586xbt458+fLh5uZGmTJlsLS0pGXLlpKJizaNHj0aCwsL3N3dKVu2LO7u7kyYMCFHGKx6Yrdp04Y2bdqYhMer7xO/Z9eoxPPdu3enbt260nclylYUhdDQUKytrVm4cCGQJYCqV68uJ6laoypXrhwRERHyPm9vbwCTgAxFUfD29qZTp04m/REQ38eNG0f+/Plxd3fHzc2NcuXKmZhRFEWhdu3adOnSBchajI6OjjKgRZ3Z968SVAUKFMh1PAXtGjduzOjRo2W53bt3p0ePHrL+2bNn4+LiAsDGjRspVqwYkZGR0pQs/BiQpRXv2LGDr7/+mipVqmBnZ8fJkyeBLI3K3d2do0ePcuTIET7//HPs7Ow4ceIEsbGxFClShGXLlpkEnQj6jBs3DhsbGwBiYmJo2rQp1tbWeHh4oNVq0Wg0UriqBd0fEVSiDKHZvv/++7Ro0QJ4IagGDRok74EsE6y/vz9t2rQhX758jB8/HkVReP/99+nUqdNLmbwQLDqdjnHjxpm8xIn5uGzZMiwsLHj48CHDhg2TZtSxY8dSoUIF0tLSmDRpEt7e3jJkvHHjxvTp0weAli1b8vHHH6MoCp07d+bjjz8GsnxUXl5eFC9eHA8PD9zc3HB3d8fT05Pk5GTmzJmDTqeTL3fZU2YIASWEQm6C6tatW1SrVg17e3uTOnx8fKR5XQiqjRs3AqaCav/+/RQqVIj9+/ebvEy+KbJr0mZB9Tvxd2lUDg4OREdHA9CxY0c6derE8ePHKVmyJOfOnZOmP4GjR4/i6OhIQECASVmff/75G/lTFEWRQq579+7UqlWL58+fm7zpZO9ndo1KPD906FDc3NyIjIyU5h6xD+X48eNYWFjw008/Se2ratWqclGJvSRTp07Fw8PjlRqVYDoeHh4mb7fZ+wVZpr8KFSq8tO+KorBkyRLs7e1JTk7G398fFxcXqWmoF/1fIai+++47bG1t5TNiPOfPnw9k+QUKFiyIXq9n1apV/Pjjj3To0IHixYtz8+ZN+Sbv4uKCoigkJCRQt25dRo0axdatWyldurQM+ABymIR8fHxo06YNmZmZjB49msKFC+Pj40OtWrXo3r27NNUmJydjbW3NxIkTJXOGFwKgR48elC5dGsjybXl5eTFmzBhJh88++wwPDw9iYmIk04Q/R6MSJihvb2/5wpGQkGAiqHIzR02ZMoWiRYvy+PFjunTpQoMGDUhJSZFzXy1QBcqWLUvPnj2BFyHhQvP+5ptvsLGxITo6mqFDh1KrVi0UReH27du4urryww8/MGPGDGnKTklJoUmTJvTp0wdFUTh69Ci2trYcO3aMHj16SI0qPDwcnU6Xwy8msHLlSooVK8bVq1el+VS0T72GX6VRhYeHU6pUqVz9YOKeK1eu5KpRZWZmsnXrViwtLQkJCQFeHeqvHs+DBw/KF1v1/kh1BKlZUL0F/i5BJXxEiqJw8uRJyYyrVavG6dOnWbt2LVZWVsTFxUlmZzAY5BuVaOeQIUOoWLGijC5Sb1xU9wdeMM3ly5djZWUlGZvax5SRkSHDdJcuXYq1tTUxMTGkpKSQkJBAamoqP/30EwUKFJAh20lJSfL5WbNmUaJECem8HjduHE5OTpKOYrKOGjWKSpUqSV9B//798fT0JCUlhefPn8vyLl68yLvvvsvWrVtf6aMaNWoUZcqUISEhgWfPnvH8+XMSEhJISUmRjObhw4c4Ozvj7+9Pu3btTBiRerH/VRqVjY1NjvF0cnIiKSmJSZMmSVNdmzZt+PDDD+nUqRMlSpSQ5qQZM2bg6uoq59GGDRuoWLEier2e6tWry6i/e/fuAVkMQdB38ODBVKpUidTUVP6vvfOPqar84/jhamqjNbXmuecAoZRuOlPLcAiEcC9eb7hZbS20Jv4oY0oq+XNrVprMP2wux8x9a876x1bz8kuboWmKA0VBwcxfmEVmAiYqIQJy7nl9/7g7T/deAaG0L3x93tt73Mu95zzn+fX5PJ/P8/k8d9GiRe0G4Fj1dDgcxMXFif81NTWJxUhUVJQIXLhx4wbjx48nIyOD27dvizESFhbGypUrxXiCv6eonnzySZqbm7l586YYDxcuXKBfv34imMFyP1quP3+rsqGhgba2NioqKggJCaGsrIwvvviC0NBQEYzgP/ZbWlqora3FNE1mz57NsGHDxPNYcwtg0qRJwn24YMGCgCCgNWvWEB0dTVpaGvHx8SIxNykpiXnz5onvvfrqq7jdbl588UURTGG55davX09jYyP19fU0NjZy48YNDMPgxIkTPProo6LuLS0tAftHly5dEt6Nzlx/ERERbNiwgcbGRq5du8aff/4ZMOcsi+rLL7+kpaUlIOgkLS2NMWPGiGe629ywPlcUhdTUVHJzc8Vn/sEY8hd+u4l/Q1F9/fXXhIWFUVdXJ1ZqS5cu5ZFHHmHUqFFij8pa/VtmfXV1NeHh4cKqAsjMzGTs2LFA5/5ia6VpGAbXrl3D4XAQHx/PqVOnxHdOnDhBWloaeXl5QPuRahZSUlJ45plnhEAGX+7IY489RlZWFuBrt8rKSvr16xcQfXTmzBnsdjsrVqwQEyg9PV0IRwslJSWMGDGC5ORkMSE7i/qz2qEjtLa28vbbbxMREcHTTz+Nx+MJsDSte23cuJFRo0b9LUW1e/fuAEXt70YdMmRIQH/+8ssv6LrOJ598QlxcHB999NEd9160aBEulwvDMMjOzuapp54SlkpDQwMzZsxg8ODBREdHi2CKkSNHUlBQIO5x9uxZhgwZwty5c/F6vSxevJhx48bR0tJCY2PjHSdTHD58mNDQUD788MOAtnvjjTcICwsTdbtx4wYxMTG88847wF+BCFlZWei6LoQZ+ARzampqlxVVe/1ZXl7O2LFjiYmJEQuehoYGYmNjSU9PB2DGjBksWrQowF2dlpaGqqpcvHiRhoYGJkyYQHJycoAFWl5ezmuvvcaePXsA317XkCFDeOuttwIiCK20CitlYsGCBSK8vLW1lZqaGqKjo9F1HYfDIVyJLpdLeAVaWlo4e/YsqqoSGRnJ66+/DvwV9ddRRF5bWxsrV64kIiIiIET/jz/+YPny5SLAxHKRjh49mnXr1gF/zZtff/2VoUOHCmupPZw5cwZVVUUdwadI1q1bx8MPP8y2bduAQDdeR7DKtdvtIiXnvffeE94ky7KVFlU3cT8VlaVItm7diqIoAdF71mpJURQqKyvZsmULiqKIyW9dm5mZyaBBg8TezsyZM4UyaS/CK7hulrKsrq5mzpw5JCQkiPyn559/njfffFOsyDdu3IiiKEyaNAmn04nL5SIpKUlsxM6dO5eJEyficrmYPHkycXFxZGVlcfPmzYDV1pYtWxg3bhyJiYlMnjyZZ599ljlz5nDlyhXR3rNmzUJRFJKTk3E6nUydOhWn08nixYsDEjGDJ4Y1ERYuXIiiKDidThwOBy6XC6fTybvvviuEGkBxcTGKohATEyMEabBFtXbtWgYOHChy0e7m3vC/tqCgAEVROHnyJPCXy8zKSQvuzyVLlhASEoLNZuPkyZM0Nzdz69YtYQ3m5+ejKApHjhwhOzubAQMGBPTj7t27hQCw3JhLly4lJiaGKVOmkJKSwoQJE0hNTQ3IWdN1/Y4x43/qQX5+PgkJCTidTqZMmYLD4cDtdlNUVCS+f+3aNSIjI5k9ezaAsF7r6+sJDQ0V0YAASUlJOByOO1w+7bVlcH9a4yE5OZn58+eLeoBPWUZFRYk8qm3bthEfH09ycjIvvPACiYmJxMTEsHPnTsA3hs6fP8/MmTMDxn58fDwLFiwQFhX4xorL5SIxMVGMp6SkJGEVmKbJjBkzhMvZUo6bNm1CURTCw8Pxer00Nzczbtw4UlNTA743f/58UUfwLSjsdjvh4eFirlnzznr+xsZGVq9eLerodrtxOBxMnTqVsrIysW9kGAaDBw8Wlq01Fy0FHBERgcvlwuFwiD62yigrKyM0NJThw4eLnC23243b7earr74KCDq5G6z+HDhwIH379iUkJARFUYiNjRWeAoDr169LRdUdtGeK3k1QdffedXV1HDp0KCCY4fbt25w8eZKioiJu3rxJXV0dxcXFYqVrDYwrV65QVFQkhG9VVVXAiQHBG5Xt0V9YHD16lPz8fAoKCigvLw8QXDU1NRQVFeHxeNi+fTs5OTl4PB6RoW4YBocPHyY3N5eCgoIA6yxYIJ07d46dO3eSm5tLSUnJHeccXrhwgb179+LxeMjNzeXbb78Vwv5u9TFNk+rqavbt28f27dvZvn27eObi4uKAslpbWzl48CBVVVUB5fsrwd9++40jR44EnMHWFYIvwKCkpEQoJKv+ly9fFv3p31dXrlzhwIEDlJaWtrvB39TURHFxMVevXqW2tpbS0tKAMltaWjh27BglJSUBbqCzZ8+ya9cu8vPzOXTokPjMNE2qqqpESkRwSoP/+Lh8+TKFhYXk5OSwd+9eYWH6n/Jw7NgxYZn436uiooLKykpRjx9//JFTp051aXwG92dOTg67du2isrLyjvEV/Azgy7/bv38/ubm57NmzJ+AEDKv929raKC0tJS8vjx07dnD8+PE7zgsEnzLeu3cvOTk5FBYW3nGaRlVVFRUVFeKZvF4vjY2NHDp0SCgOr9fLiRMnhGvWsojr6+s5ePCgODWkqamJiooKvvnmGzweT8C8s1IRLJw+fZqdO3eSl5fHwYMHRZqBfxsePXpUKHX/8XT8+PEOywDfvl9ZWRk7duzA4/FQUFDAgQMHRLBFewvGjmD106BBg8SCqm/fviiKQv/+/Zk4caKQJ9biSSqqLsDfotJ1XQzaYIHU3uu7TUL/+/uX19VO72h/prPXHaGzwdCdlVJ711pCOFjwtXePrtT/XmbAB/8vuPzO2vhu9+/o2q7+P/g+dyu7o+s7Qmd9Fjx2OxofwQe3BpfbXn//3TbtCMERrf737eje/ou4zsa+/5js6Hvtjduu9lnw9zt639E1nVkywQvV4Gu7WkZnCN7/7kzO+bfhwIEDhaJSFIU+ffqI14MGDSIjI0NaVN2B/2C22WwkJCRgmiaff/45uq6LZLvRo0eLUOGSkhJ0XRfnyU2bNg1d1/F6vdTW1qLrOunp6ZimybJly9A0jfPnz2OapvBlm6YvKk1VVQoLCzFNk+HDhzNs2DDAlxVuBQIYhkFKSooo4+LFi+i6TkZGBqZpkpmZSf/+/Tly5Ag1NTXYbDbGjBlDTU0Na9as4fHHH2ffvn14vV6ioqKIiorCMAy+++47NE1j8+bNAEyePBlVVTEMg59//hlVVVm4cCFer5eMjAw0TRPHJamqitvtxjRNsrOz0XVduImGDh3KiBEjMAyDXbt2oaoqn332GeDbuLfqcf78eVRVZcmSJRiGwbx589A0jdraWlpaWrDZbEyYMIGamhqWL1+OzWYjJyeH+vp6wsPDGTlyJIZhUFBQIELPrXBma7Vm7Q1YkWpz585F13WuXr1Ka2sruq7z8ssvYxgG69evR9M0SktLqauro0+fPqiqSk1NDZ9++ik2m42PP/6YtrY2YmNj0TQN0/SF6GuaxqpVqzBNk1mzZonTKm7duoWu68INlJWVhaqqYvWt6zrjx4/HNE08Hg+apokIyujoaFRVxTR9eWG6rrN69WoMw2D69OlomiaCSOx2O9OnT8cwDD744AM0TeOHH34AfPsFzz33HOAL7NF1XezXjR8/XizQysvLUVWVtWvXYhgGr7zyCpqmcevWLa5fv46macycOROv18uqVavQdV1YTaqqEhMTA/iSwO12O3l5eZimL6HYCibasWMHNpuNJUuWUFNTQ2xsLAMGDKC5uZm6ujpUVWXOnDkYhsGKFSvQNI1z586JtkpISMAwDLZu3Srmp9frZeTIkYSFhWEYBsXFxWiaxnniuTIAAAM3SURBVIYNGzBNk2nTpqFpGm1tbfz++++oqsq8efPE/NR1XRy3ZbfbSUxMxDAM/vOf/2C32yksLAR8+X2RkZEYhkFRURGappGdnY1pmrjdbtFXly5dwm63i8jEzMxMdF0Xx6fZ7XZcLhemabJp0yZUVWXPnj0YhiHmp9frZd++fei6zubNm/F6vTidTjE/q6ur0TSNzMxMTNMkIyMDVVVFVK2u66SkpGCaJhs3bkRVVfbv349hGDzxxBMMHz4cr9dLYWEhmqbx6aefYhgGkyZNEmX89NNPaJrGsmXLME2T9PR0dF2ntrYWr9eLrusi1H7Dhg3oui6sJWtbw58hISE89NBD4r2VnycVVRdgKar74fq73/C3/l566SUiIyMZNmxYwN/o6GiOHj0K9I56Wf1x+vRpIiMjAzh06FAiIyNJS0u7w5V4r8o2TZOmpiYmTpwYUKbVnomJiSLSrCdPsJ4Cq3/OnDnTaX/6H4Qs0XvRnusv2KIaPHiwtKi6i3/D9dfd+3T1s79Tz39a/v2oR0fvu1unf9pX/vfsatndLeN+tFVvKKOrbdrT63EvxvX/QxkdfWYpHX9FZVlR/fv3JzY2VuTwyT2qbsBq6N4SLukP/8FiJQQG8378+Nn9hP+ztlef+1mn/8f2/F/jf9mfEv8+Oor6i4uLE6fXgIz66zZ6s6KSkJCQ6EloL4/q/fffl3lU/xRSUUlISEjcG/ifTDF9+nRxmADIkyn+EaSikpCQkLg3sOTp999/L367Tp71dw8gFZWEhITE/YE8Pf0eobc1nISEhERPhSVP5e9R3WP0toaTkJCQ6K3obfJWKioJCQmJBwy9Td5KRSUhISHxgKG3yVupqCQkJCQeMPQ2eSsVlYSEhMQDht4mb6WikpCQkHjA0NvkrVRUEhISEg8Yepu8lYpKQkJC4gFDb5O3imEYSEpKSkpK9lRKRSUpKSkp2aMpFZWkpKSkZI+mVFSSkpKSkj2aUlFJSkpKSvZoSkUlKSkpKdmjKRWVpKSkpGSPplRUkpKSkpI9mlJRSUpKSkr2aEpFJSkpKSnZoykVlaSkpKRkj6ZUVJKSkpKSPZpSUUlKSkpK9mj+F4bES3tZDnc3AAAAAElFTkSuQmCC;">
          <mxGeometry as="geometry" height="249" width="426" y="660" x="327" />
        </mxCell>
        <mxCell id="gIP6S9F6-g7-Ln39XYHl-30" value="Cloud Connection management" parent="1" vertex="1" style="text;html=1;resizable=0;autosize=1;align=center;verticalAlign=middle;points=[];fillColor=none;strokeColor=none;rounded=0;">
          <mxGeometry as="geometry" height="20" width="190" y="630" x="445" />
        </mxCell>
        <mxCell id="gIP6S9F6-g7-Ln39XYHl-37" value="Mobile App" parent="1" vertex="1" style="rounded=1;whiteSpace=wrap;html=1;">
          <mxGeometry as="geometry" height="190" width="180" y="650" x="30" />
        </mxCell>
        <mxCell id="gIP6S9F6-g7-Ln39XYHl-38" value="Rest API Server" parent="1" vertex="1" style="rounded=1;whiteSpace=wrap;html=1;">
          <mxGeometry as="geometry" height="46" width="90" y="490" x="75" />
        </mxCell>
        <mxCell id="gIP6S9F6-g7-Ln39XYHl-39" value="Rest API Client" parent="1" vertex="1" style="rounded=1;whiteSpace=wrap;html=1;">
          <mxGeometry as="geometry" height="46" width="90" y="660" x="75" />
        </mxCell>
        <mxCell id="gIP6S9F6-g7-Ln39XYHl-40" value="" parent="1" style="endArrow=none;dashed=1;html=1;entryX=0.5;entryY=1;entryDx=0;entryDy=0;" edge="1" target="gIP6S9F6-g7-Ln39XYHl-38" source="gIP6S9F6-g7-Ln39XYHl-39">
          <mxGeometry as="geometry" height="50" width="50" relative="1">
            <mxPoint as="sourcePoint" y="610" x="330" />
            <mxPoint as="targetPoint" y="560" x="380" />
          </mxGeometry>
        </mxCell>
      </root>
    </mxGraphModel>
  </diagram>
  <diagram id="05-2KvZWrk6eqZvuZxqW" name="Page-2">
    <mxGraphModel grid="1" dx="1422" dy="832" gridSize="10" guides="1" tooltips="1" connect="1" arrows="1" fold="1" page="1" pageScale="1" pageWidth="827" pageHeight="1169" math="0" shadow="0">
      <root>
        <mxCell id="KT1tOf4fX-OqqLhYAclR-0" />
        <mxCell id="KT1tOf4fX-OqqLhYAclR-1" parent="KT1tOf4fX-OqqLhYAclR-0" />
      </root>
    </mxGraphModel>
  </diagram>
</mxfile>
